<svg width="26" height="28" viewBox="0 0 26 28" fill="none" xmlns="http://www.w3.org/2000/svg">
    <path d="M15.1542 8.66687H14.4642V7.3002H15.1575C15.3753 7.3002 15.532 7.34798 15.6275 7.44353C15.7231 7.53909 15.7709 7.68464 15.7709 7.8802V8.08686C15.7709 8.2802 15.722 8.42575 15.6242 8.52353C15.5286 8.61909 15.372 8.66687 15.1542 8.66687Z" fill="currentColor"/>
    <path fill-rule="evenodd" clip-rule="evenodd" d="M3.63798 0.719482C2.16522 0.719482 0.971313 1.91339 0.971313 3.38615V24.6095C0.971313 26.0822 2.16522 27.2761 3.63798 27.2761H22.3717C23.8445 27.2761 25.0384 26.0822 25.0384 24.6095V3.38615C25.0384 1.91339 23.8445 0.719482 22.3717 0.719482H3.63798ZM9.00859 15.3347H6.34192V18.0014H9.00859V15.3347ZM6.34192 20.5649H9.00859V23.2315H6.34192V20.5649ZM19.6507 15.3347H10.3382V18.0014H19.6507V15.3347ZM10.3382 20.5649H19.6507V23.2315H10.3382V20.5649ZM18.6359 10.7702C18.8092 10.7969 18.9948 10.8102 19.1925 10.8102C19.7592 10.8102 20.1814 10.7035 20.4592 10.4902C20.737 10.2746 20.8759 9.95242 20.8759 9.52353V9.4702C20.8759 9.2102 20.827 9.00242 20.7292 8.84687C20.6336 8.68909 20.4881 8.56131 20.2925 8.46353C20.0992 8.36353 19.8548 8.2702 19.5592 8.18353C19.3392 8.11909 19.1692 8.05909 19.0492 8.00353C18.9314 7.94798 18.8492 7.8902 18.8025 7.8302C18.7581 7.7702 18.7359 7.7002 18.7359 7.6202V7.60687C18.7359 7.52909 18.7559 7.46353 18.7959 7.4102C18.8359 7.35464 18.9048 7.31242 19.0025 7.28353C19.1025 7.25464 19.2392 7.2402 19.4125 7.2402C19.6592 7.2402 19.8903 7.26909 20.1059 7.32687C20.3236 7.38242 20.5181 7.45131 20.6892 7.53353L20.5992 6.6402C20.4436 6.56686 20.2536 6.50353 20.0292 6.4502C19.807 6.39686 19.5425 6.3702 19.2359 6.3702C18.7248 6.3702 18.337 6.47242 18.0725 6.67686C17.8103 6.88131 17.6792 7.17686 17.6792 7.56353V7.60687C17.6792 7.85798 17.7281 8.06575 17.8259 8.2302C17.9236 8.39242 18.0714 8.52798 18.2692 8.63687C18.4692 8.74575 18.7181 8.84464 19.0159 8.93353C19.2136 8.99131 19.3703 9.04575 19.4859 9.09687C19.6036 9.14575 19.687 9.2002 19.7359 9.2602C19.787 9.31798 19.8125 9.39353 19.8125 9.48686V9.5102C19.8125 9.6502 19.757 9.75353 19.6459 9.8202C19.537 9.88464 19.3525 9.91687 19.0925 9.91687C18.8236 9.91687 18.5692 9.88242 18.3292 9.81353C18.0892 9.74242 17.8814 9.66575 17.7059 9.58353L17.7959 10.5435C17.9025 10.588 18.0259 10.6313 18.1659 10.6735C18.3081 10.7135 18.4648 10.7458 18.6359 10.7702ZM5.30383 6.4602V10.7202H6.3405V9.23686H8.1105V8.3602H6.3405V7.33686H8.1605V6.4602H5.30383ZM10.2039 7.3302V10.7202H11.2472V7.3302H12.4206V6.4602H9.02722V7.3302H10.2039ZM14.4709 10.7202V9.5102H15.2375C15.7775 9.5102 16.1731 9.39131 16.4242 9.15353C16.6775 8.91353 16.8042 8.56909 16.8042 8.1202V7.8502C16.8042 7.40353 16.6775 7.0602 16.4242 6.8202C16.1731 6.5802 15.7764 6.4602 15.2342 6.4602H13.4442V10.7202H14.4709Z" fill="currentColor"/>
</svg>
