<svg width="32" height="32" viewBox="0 0 32 32" fill="none" xmlns="http://www.w3.org/2000/svg">
<g id="SftpList">
<g id="Subtract">
<path d="M21.5411 10.6663H22.2311C22.4489 10.6663 22.6055 10.6185 22.7011 10.523C22.7988 10.4252 22.8477 10.2796 22.8477 10.0863V9.87963C22.8477 9.68407 22.8 9.53852 22.7044 9.44296C22.6088 9.34741 22.4522 9.29963 22.2344 9.29963H21.5411V10.6663Z" fill="currentColor"/>
<path fill-rule="evenodd" clip-rule="evenodd" d="M6.6381 2.71924C5.16534 2.71924 3.97144 3.91315 3.97144 5.38591V26.6092C3.97144 28.082 5.16534 29.2759 6.6381 29.2759H25.3718C26.8446 29.2759 28.0385 28.082 28.0385 26.6092V5.38591C28.0385 3.91315 26.8446 2.71924 25.3718 2.71924H6.6381ZM12.0087 17.3345H9.34204V20.0011H12.0087V17.3345ZM9.34204 22.5643H12.0087V25.231H9.34204V22.5643ZM22.6508 17.3345H13.3383V20.0011H22.6508V17.3345ZM13.3383 22.5643H22.6508V25.231H13.3383V22.5643ZM9.08045 12.7696C9.25378 12.7963 9.43933 12.8096 9.63711 12.8096C10.2038 12.8096 10.626 12.703 10.9038 12.4896C11.1816 12.2741 11.3204 11.9519 11.3204 11.523V11.4696C11.3204 11.2096 11.2716 11.0019 11.1738 10.8463C11.0782 10.6885 10.9327 10.5607 10.7371 10.463C10.5438 10.363 10.2993 10.2696 10.0038 10.183C9.78378 10.1185 9.61378 10.0585 9.49378 10.003C9.376 9.94741 9.29378 9.88963 9.24711 9.82963C9.20267 9.76963 9.18045 9.69963 9.18045 9.61963V9.6063C9.18045 9.52852 9.20045 9.46296 9.24045 9.40963C9.28045 9.35407 9.34933 9.31185 9.44711 9.28296C9.54711 9.25407 9.68378 9.23963 9.85711 9.23963C10.1038 9.23963 10.3349 9.26852 10.5504 9.3263C10.7682 9.38185 10.9627 9.45074 11.1338 9.53296L11.0438 8.63963C10.8882 8.5663 10.6982 8.50296 10.4738 8.44963C10.2516 8.3963 9.98711 8.36963 9.68045 8.36963C9.16934 8.36963 8.78156 8.47185 8.51711 8.6763C8.25489 8.88074 8.12378 9.1763 8.12378 9.56296V9.6063C8.12378 9.85741 8.17267 10.0652 8.27045 10.2296C8.36822 10.3919 8.516 10.5274 8.71378 10.6363C8.91378 10.7452 9.16267 10.8441 9.46045 10.933C9.65822 10.9907 9.81489 11.0452 9.93045 11.0963C10.0482 11.1452 10.1316 11.1996 10.1804 11.2596C10.2316 11.3174 10.2571 11.393 10.2571 11.4863V11.5096C10.2571 11.6496 10.2016 11.753 10.0904 11.8196C9.98156 11.8841 9.79711 11.9163 9.53711 11.9163C9.26822 11.9163 9.01378 11.8819 8.77378 11.813C8.53378 11.7419 8.326 11.6652 8.15045 11.583L8.24045 12.543C8.34711 12.5874 8.47045 12.6307 8.61045 12.673C8.75267 12.713 8.90934 12.7452 9.08045 12.7696ZM12.3807 8.45963V12.7196H13.4174V11.2363H15.1874V10.3596H13.4174V9.3363H15.2374V8.45963H12.3807ZM17.2808 12.7196V9.32963H16.1041V8.45963H19.4974V9.32963H18.3241V12.7196H17.2808ZM21.5477 11.5096V12.7196H20.5211V8.45963H22.3111C22.8533 8.45963 23.25 8.57963 23.5011 8.81963C23.7544 9.05963 23.8811 9.40296 23.8811 9.84963V10.1196C23.8811 10.5685 23.7544 10.913 23.5011 11.153C23.25 11.3907 22.8544 11.5096 22.3144 11.5096H21.5477Z" fill="currentColor"/>
</g>
</g>
</svg>
