<svg width="32" height="32" viewBox="0 0 32 32" fill="none" xmlns="http://www.w3.org/2000/svg">
<g id="SmbDelete">
<g id="Subtract">
<path d="M23.2596 13.2215H22.1806V11.7482H23.3116C23.4878 11.7482 23.6423 11.7785 23.7752 11.8392C23.911 11.8969 24.0165 11.9807 24.0916 12.0905C24.1696 12.1974 24.2086 12.3259 24.2086 12.4762C24.2086 12.6871 24.1277 12.8647 23.9659 13.0092C23.807 13.1507 23.5716 13.2215 23.2596 13.2215Z" fill="currentColor"/>
<path d="M23.3116 10.5955H22.1806V9.20017H23.2422C23.4993 9.20017 23.7131 9.26228 23.8836 9.3865C24.054 9.51073 24.1392 9.68695 24.1392 9.91517C24.1392 10.0249 24.1176 10.1232 24.0742 10.2098C24.0309 10.2936 23.9717 10.3644 23.8966 10.4222C23.8215 10.4799 23.7348 10.5233 23.6366 10.5522C23.5383 10.5811 23.43 10.5955 23.3116 10.5955Z" fill="currentColor"/>
<path fill-rule="evenodd" clip-rule="evenodd" d="M3.96167 5.38591C3.96167 3.91315 5.15558 2.71924 6.62834 2.71924H25.3718C26.8446 2.71924 28.0385 3.91315 28.0385 5.38591V17.7815C27.1629 17.453 26.2145 17.2733 25.2241 17.2733C20.7992 17.2733 17.2122 20.8603 17.2122 25.2852C17.2122 26.75 17.6053 28.1231 18.2918 29.3045H6.62834C5.15558 29.3045 3.96167 28.1106 3.96167 26.6379V5.38591ZM8.99626 14.4305C8.67849 14.4305 8.36504 14.3915 8.05593 14.3135C7.74971 14.2326 7.46949 14.1127 7.21526 13.9538C6.96104 13.7921 6.75015 13.5898 6.5826 13.3472C6.41793 13.1045 6.32115 12.8199 6.29226 12.4935H7.80026C7.83782 12.6639 7.91004 12.8084 8.01693 12.9268C8.12382 13.0424 8.2596 13.1319 8.42426 13.1955C8.59182 13.2562 8.7796 13.2865 8.9876 13.2865C9.18982 13.2865 9.3776 13.2634 9.55093 13.2172C9.72426 13.1709 9.86293 13.0987 9.96693 13.0005C10.0738 12.9023 10.1273 12.7708 10.1273 12.6062C10.1273 12.4646 10.0782 12.3519 9.97993 12.2682C9.8846 12.1815 9.75749 12.1136 9.5986 12.0645C9.43971 12.0125 9.26782 11.9692 9.08293 11.9345L8.06026 11.7395C7.5836 11.6557 7.20226 11.4651 6.91626 11.1675C6.63026 10.8699 6.48293 10.4669 6.47426 9.9585C6.46849 9.55117 6.57682 9.20162 6.79926 8.90984C7.0246 8.61517 7.32649 8.38984 7.70493 8.23384C8.08337 8.07784 8.50371 7.99984 8.96593 7.99984C9.5206 7.99984 9.9886 8.08362 10.3699 8.25117C10.7542 8.41873 11.0459 8.64984 11.2453 8.9445C11.4446 9.23628 11.5472 9.56706 11.5529 9.93684H10.0839C10.0637 9.74617 10.0059 9.59306 9.9106 9.4775C9.81526 9.36195 9.6896 9.27961 9.5336 9.2305C9.38049 9.1785 9.20138 9.1525 8.99626 9.1525C8.82871 9.1525 8.68426 9.16984 8.56293 9.2045C8.4416 9.23628 8.34049 9.28106 8.2596 9.33884C8.17871 9.39662 8.11804 9.4645 8.0776 9.5425C8.04004 9.61762 8.02126 9.69706 8.02126 9.78084C8.02126 9.94262 8.07326 10.0741 8.17726 10.1752C8.28415 10.2734 8.48782 10.3543 8.78826 10.4178L9.8066 10.6085C10.2226 10.6836 10.5505 10.7992 10.7903 10.9552C11.03 11.1112 11.2092 11.2874 11.3276 11.4838C11.446 11.6774 11.5212 11.8724 11.5529 12.0688C11.5876 12.2653 11.6049 12.4444 11.6049 12.6062C11.6049 12.9499 11.4923 13.2605 11.2669 13.5378C11.0445 13.8152 10.7368 14.0333 10.3439 14.1922C9.95393 14.3511 9.50471 14.4305 8.99626 14.4305ZM12.6202 14.3438V8.07784H14.7956L16.0176 12.2205L17.2526 8.07784H19.4149V14.3438H17.9329V9.67684L16.5679 14.3438H15.4672L14.1022 9.68984V14.3438H12.6202ZM20.7029 8.07784V14.3438H23.2119C24.0959 14.3438 24.7329 14.2052 25.1229 13.9278C25.5129 13.6505 25.7079 13.2215 25.7079 12.6408C25.7079 12.5079 25.6949 12.3693 25.6689 12.2248C25.6429 12.0804 25.5895 11.9388 25.5086 11.8002C25.4306 11.6615 25.3107 11.5329 25.1489 11.4145C24.99 11.2961 24.7777 11.2007 24.5119 11.1285C24.9077 10.9465 25.1807 10.7428 25.3309 10.5175C25.484 10.2893 25.5606 10.0264 25.5606 9.72884C25.5606 9.19439 25.3612 8.78562 24.9626 8.5025C24.5639 8.21939 23.9399 8.07784 23.0906 8.07784H20.7029Z" fill="currentColor"/>
<path d="M30.0534 22.5065L27.2134 25.3331L30.0534 28.1598L28.1601 30.0531L25.3334 27.2131L22.5068 30.0531L20.6134 28.1598L23.4534 25.3331L20.6134 22.5065L22.5068 20.6131L25.3334 23.4531L28.1601 20.6131L30.0534 22.5065Z" fill="currentColor"/>
</g>
</g>
</svg>
