<svg width="24" height="24" viewBox="0 0 24 24" fill="none" xmlns="http://www.w3.org/2000/svg">
<g id="FtpList">
<g id="Subtract">
<path d="M15.6863 8.38389H16.4108C16.6394 8.38389 16.8039 8.33373 16.9043 8.23339C17.0069 8.13073 17.0583 7.97789 17.0583 7.77489V7.55789C17.0583 7.35256 17.0081 7.19973 16.9078 7.09939C16.8074 6.99906 16.6429 6.9489 16.4143 6.9489H15.6863V8.38389Z" fill="currentColor"/>
<path fill-rule="evenodd" clip-rule="evenodd" d="M4.97852 2.03955C3.87395 2.03955 2.97852 2.93498 2.97852 4.03955V19.957C2.97852 21.0616 3.87395 21.957 4.97852 21.957H19.0288C20.1334 21.957 21.0288 21.0616 21.0288 19.957V4.03955C21.0288 2.93498 20.1334 2.03955 19.0288 2.03955H4.97852ZM6.06104 10.5399V6.06689H9.06054V6.98739H7.14954V8.0619H9.00804V8.9824H7.14954V10.5399H6.06104ZM11.2129 10.5399V6.98039H9.97743V6.06689H13.5404V6.98039H12.3084V10.5399H11.2129ZM15.6933 9.26939V10.5399H14.6153V6.06689H16.4948C17.0641 6.06689 17.4806 6.19289 17.7443 6.44489C18.0103 6.69689 18.1433 7.05739 18.1433 7.52639V7.80989C18.1433 8.28123 18.0103 8.64289 17.7443 8.89489C17.4806 9.14456 17.0653 9.26939 16.4983 9.26939H15.6933ZM7.00647 13.001H9.00647V15.001H7.00647V13.001ZM9.00647 16.9233H7.00647V18.9233H9.00647V16.9233ZM10.0037 13.001H16.988V15.001H10.0037V13.001ZM16.988 16.9233H10.0037V18.9233H16.988V16.9233Z" fill="currentColor"/>
</g>
</g>
</svg>
