<svg width="25" height="24" viewBox="0 0 25 24" fill="none" xmlns="http://www.w3.org/2000/svg">
<path d="M11.3041 6.43089H18.308C19.2711 6.43091 20.059 7.21007 20.059 8.18187V9.48363C19.4636 9.06027 18.7359 8.81085 17.9496 8.81078C15.9366 8.81078 14.3042 10.4422 14.3041 12.4553C14.3041 12.8085 14.3549 13.1499 14.4487 13.4729C12.7626 13.793 11.4878 15.2738 11.4877 17.053C11.4877 17.6389 11.6268 18.1923 11.8725 18.6828C11.7401 18.6839 11.603 18.6877 11.4613 18.6877H4.30022C3.33717 18.6877 2.54925 17.9085 2.54924 16.9368V6.43089C2.54924 5.45909 3.32841 4.67992 4.30022 4.67992H9.55315L11.3041 6.43089Z" fill="#14181F"/>
<path d="M17.045 18.337C16.3146 19.3726 14.8889 19.6327 13.8583 18.9123C12.8328 18.192 12.5926 16.7562 13.313 15.7107C13.7483 15.0853 14.4186 14.7501 15.104 14.7201L15.129 15.4355C14.6737 15.4705 14.2335 15.7056 13.9484 16.1159C13.4481 16.8362 13.6032 17.8067 14.2885 18.292C14.9789 18.7723 15.9444 18.5872 16.4447 17.8718C16.5997 17.6467 16.6898 17.4015 16.7248 17.1514V16.6461L19.5163 16.6261L19.5513 16.5711C19.8164 16.1109 20.3917 15.9508 20.842 16.2109C21.2922 16.471 21.4473 17.0514 21.1821 17.5116C20.917 17.9668 20.3367 18.1269 19.8865 17.8668C19.6814 17.7517 19.5363 17.5666 19.4713 17.3565L17.4352 17.3665C17.3802 17.7017 17.2501 18.0269 17.045 18.337Z" fill="currentColor"/>
<path d="M22.6979 17.3015C22.853 16.0558 21.9526 14.9202 20.6869 14.7652C20.3367 14.7251 19.9965 14.7602 19.6864 14.8602L18.7359 13.1043C18.8709 12.9492 18.956 12.7491 18.966 12.529C18.981 12.0087 18.5658 11.5835 18.0405 11.5535C17.5152 11.5335 17.065 11.9387 17.05 12.4589C17.035 12.9792 17.4452 13.4144 17.9755 13.4345H18.0855L19.3762 15.8207L19.8014 15.6006C20.0365 15.5155 20.2967 15.4805 20.5668 15.5105C21.4323 15.6156 22.0526 16.381 21.9476 17.2164C21.8425 18.0519 21.0671 18.6472 20.1916 18.5421C19.6914 18.4771 19.2762 18.202 19.031 17.8168L18.4107 18.1769C18.7659 18.7673 19.3812 19.1925 20.1266 19.2825C21.3923 19.4376 22.5429 18.5521 22.6979 17.3015Z" fill="currentColor"/>
<path d="M15.9394 13.4044C15.4391 12.2288 15.9694 10.8831 17.125 10.3929C18.2856 9.90261 19.6263 10.4579 20.1266 11.6335C20.4218 12.3189 20.3617 13.0693 20.0265 13.6696L19.4062 13.3094C19.6163 12.9042 19.6513 12.4089 19.4512 11.9437C19.1111 11.1433 18.2056 10.7581 17.4302 11.0832C16.6498 11.4134 16.2996 12.3339 16.6398 13.1343C16.7798 13.4645 17.015 13.7196 17.3001 13.8897L17.4952 13.9948L15.9594 16.4911L15.9664 16.5026C15.9803 16.5252 15.9967 16.552 16.0094 16.5861C16.2546 17.0413 16.0845 17.6166 15.6242 17.8618C15.169 18.1069 14.5937 17.9268 14.3436 17.4566C14.0984 16.9913 14.2685 16.416 14.7288 16.1709C14.9239 16.0658 15.139 16.0408 15.3441 16.0858L16.4997 14.1999C16.2646 13.9847 16.0645 13.7146 15.9394 13.4044Z" fill="currentColor"/>
</svg>
