<svg width="24" height="24" viewBox="0 0 24 24" fill="none" xmlns="http://www.w3.org/2000/svg">
    <path d="M16.5436 12.036H17.3716C17.633 12.036 17.821 11.9787 17.9356 11.864C18.053 11.7467 18.1116 11.572 18.1116 11.34V11.092C18.1116 10.8573 18.0543 10.6827 17.9396 10.568C17.825 10.4533 17.637 10.396 17.3756 10.396H16.5436V12.036Z" fill="currentColor"/>
    <path fill-rule="evenodd" clip-rule="evenodd" d="M4.97852 2.03955C3.87395 2.03955 2.97852 2.93498 2.97852 4.03955V19.957C2.97852 21.0616 3.87395 21.957 4.97852 21.957H19.0288C20.1334 21.957 21.0288 21.0616 21.0288 19.957V4.03955C21.0288 2.93498 20.1334 2.03955 19.0288 2.03955H4.97852ZM5.55121 14.5V9.388H8.97921V10.44H6.79521V11.668H8.91921V12.72H6.79521V14.5H5.55121ZM11.4313 14.5V10.432H10.0193V9.388H14.0913V10.432H12.6833V14.5H11.4313ZM16.5516 13.048V14.5H15.3196V9.388H17.4676C18.1183 9.388 18.5943 9.532 18.8956 9.82C19.1996 10.108 19.3516 10.52 19.3516 11.056V11.38C19.3516 11.9187 19.1996 12.332 18.8956 12.62C18.5943 12.9053 18.1196 13.048 17.4716 13.048H16.5516Z" fill="currentColor"/>
</svg>
