<svg width="32" height="32" viewBox="0 0 32 32" fill="none" xmlns="http://www.w3.org/2000/svg">
<g id="SmbDownloads">
<g id="Subtract">
<path d="M26.3007 11.8885H25.2217V10.4152H26.3527C26.5289 10.4152 26.6835 10.4455 26.8163 10.5062C26.9521 10.5639 27.0576 10.6477 27.1327 10.7575C27.2107 10.8644 27.2497 10.9929 27.2497 11.1432C27.2497 11.3541 27.1688 11.5317 27.007 11.6762C26.8481 11.8177 26.6127 11.8885 26.3007 11.8885Z" fill="currentColor"/>
<path d="M26.3527 9.2625H25.2217V7.86716H26.2833C26.5405 7.86716 26.7542 7.92927 26.9247 8.0535C27.0951 8.17772 27.1803 8.35394 27.1803 8.58216C27.1803 8.69194 27.1587 8.79016 27.1153 8.87683C27.072 8.96061 27.0128 9.03138 26.9377 9.08916C26.8626 9.14694 26.7759 9.19027 26.6777 9.21916C26.5795 9.24805 26.4711 9.2625 26.3527 9.2625Z" fill="currentColor"/>
<path fill-rule="evenodd" clip-rule="evenodd" d="M9.33337 1.3335H28C29.4667 1.3335 30.6667 2.52016 30.6667 4.00016V19.5602C29.2301 18.1385 27.2542 17.2606 25.0734 17.2606C20.6815 17.2606 17.1212 20.8209 17.1212 25.2127C17.1212 25.2531 17.1215 25.2933 17.1221 25.3335H9.33337C7.86671 25.3335 6.66671 24.1468 6.66671 22.6668V4.00016C6.66671 2.52016 7.85337 1.3335 9.33337 1.3335ZM12.0374 13.0975C11.7196 13.0975 11.4062 13.0585 11.097 12.9805C10.7908 12.8996 10.5106 12.7797 10.2564 12.6208C10.0022 12.4591 9.79126 12.2568 9.62371 12.0142C9.45904 11.7715 9.36226 11.4869 9.33337 11.1605H10.8414C10.8789 11.3309 10.9512 11.4754 11.058 11.5938C11.1649 11.7094 11.3007 11.7989 11.4654 11.8625C11.6329 11.9232 11.8207 11.9535 12.0287 11.9535C12.2309 11.9535 12.4187 11.9304 12.592 11.8842C12.7654 11.8379 12.904 11.7657 13.008 11.6675C13.1149 11.5693 13.1684 11.4378 13.1684 11.2732C13.1684 11.1316 13.1193 11.0189 13.021 10.9352C12.9257 10.8485 12.7986 10.7806 12.6397 10.7315C12.4808 10.6795 12.3089 10.6362 12.124 10.6015L11.1014 10.4065C10.6247 10.3227 10.2434 10.1321 9.95737 9.8345C9.67137 9.53694 9.52404 9.13394 9.51537 8.6255C9.5096 8.21816 9.61793 7.86861 9.84037 7.57683C10.0657 7.28216 10.3676 7.05683 10.746 6.90083C11.1245 6.74483 11.5448 6.66683 12.007 6.66683C12.5617 6.66683 13.0297 6.75061 13.411 6.91816C13.7953 7.08572 14.087 7.31683 14.2864 7.6115C14.4857 7.90327 14.5883 8.23405 14.594 8.60383H13.125C13.1048 8.41316 13.047 8.26005 12.9517 8.1445C12.8564 8.02894 12.7307 7.94661 12.5747 7.8975C12.4216 7.8455 12.2425 7.8195 12.0374 7.8195C11.8698 7.8195 11.7254 7.83683 11.604 7.8715C11.4827 7.90327 11.3816 7.94805 11.3007 8.00583C11.2198 8.06361 11.1592 8.1315 11.1187 8.2095C11.0812 8.28461 11.0624 8.36405 11.0624 8.44783C11.0624 8.60961 11.1144 8.74105 11.2184 8.84216C11.3253 8.94038 11.5289 9.02127 11.8294 9.08483L12.8477 9.2755C13.2637 9.35061 13.5916 9.46616 13.8314 9.62216C14.0712 9.77816 14.2503 9.95438 14.3687 10.1508C14.4872 10.3444 14.5623 10.5394 14.594 10.7358C14.6287 10.9323 14.646 11.1114 14.646 11.2732C14.646 11.6169 14.5334 11.9275 14.308 12.2048C14.0856 12.4822 13.7779 12.7003 13.385 12.8592C12.995 13.0181 12.5458 13.0975 12.0374 13.0975ZM15.6613 13.0108V6.74483H17.8367L19.0587 10.8875L20.2937 6.74483H22.456V13.0108H20.974V8.34383L19.609 13.0108H18.5083L17.1433 8.35683V13.0108H15.6613ZM23.744 6.74483V13.0108H26.253C27.137 13.0108 27.774 12.8722 28.164 12.5948C28.554 12.3175 28.749 11.8885 28.749 11.3078C28.749 11.1749 28.736 11.0363 28.71 10.8918C28.684 10.7474 28.6306 10.6058 28.5497 10.4672C28.4717 10.3285 28.3518 10.1999 28.19 10.0815C28.0311 9.96305 27.8188 9.86772 27.553 9.7955C27.9488 9.6135 28.2218 9.40983 28.372 9.1845C28.5251 8.95627 28.6017 8.69338 28.6017 8.39583C28.6017 7.86138 28.4023 7.45261 28.0037 7.1695C27.605 6.88638 26.981 6.74483 26.1317 6.74483H23.744Z" fill="currentColor"/>
<path d="M4.00004 6.66683V28.0002H14.6648V30.6668H4.00004C3.2928 30.6668 2.61452 30.3859 2.11442 29.8858C1.61433 29.3857 1.33337 28.7074 1.33337 28.0002V6.66683H4.00004Z" fill="currentColor"/>
<path d="M28.6667 26.0002L24.6667 30.0002L20.6667 26.0002H23.3334V20.6668H26V26.0002H28.6667Z" fill="currentColor"/>
</g>
</g>
</svg>
