<svg width="32" height="32" viewBox="0 0 32 32" fill="none" xmlns="http://www.w3.org/2000/svg">
<g id="FSftpDownloads">
<g id="Vector">
<path d="M28.6667 26.0002L24.6667 30.0002L20.6667 26.0002H23.3334V20.6668H26V26.0002H28.6667Z" fill="currentColor"/>
<path d="M24.11 10.6666H24.8C25.0178 10.6666 25.1745 10.6188 25.27 10.5233C25.3678 10.4255 25.4167 10.28 25.4167 10.0866V9.87995C25.4167 9.6844 25.3689 9.53884 25.2734 9.44329C25.1778 9.34773 25.0212 9.29995 24.8034 9.29995H24.11V10.6666Z" fill="currentColor"/>
<path fill-rule="evenodd" clip-rule="evenodd" d="M28 1.3335H9.33337C7.85337 1.3335 6.66671 2.52016 6.66671 4.00016V22.6668C6.66671 24.1468 7.86671 25.3335 9.33337 25.3335H17.1221C17.1215 25.2933 17.1212 25.2531 17.1212 25.2127C17.1212 20.8209 20.6815 17.2606 25.0734 17.2606C27.2542 17.2606 29.2301 18.1385 30.6667 19.5602V4.00016C30.6667 2.52016 29.4667 1.3335 28 1.3335ZM11.6494 12.77C11.8227 12.7966 12.0083 12.81 12.2061 12.81C12.7727 12.81 13.195 12.7033 13.4727 12.49C13.7505 12.2744 13.8894 11.9522 13.8894 11.5233V11.47C13.8894 11.21 13.8405 11.0022 13.7427 10.8466C13.6472 10.6888 13.5016 10.5611 13.3061 10.4633C13.1127 10.3633 12.8683 10.27 12.5727 10.1833C12.3527 10.1188 12.1827 10.0588 12.0627 10.0033C11.945 9.94773 11.8627 9.88995 11.8161 9.82995C11.7716 9.76995 11.7494 9.69995 11.7494 9.61995V9.60662C11.7494 9.52884 11.7694 9.46329 11.8094 9.40995C11.8494 9.3544 11.9183 9.31218 12.0161 9.28329C12.1161 9.2544 12.2527 9.23995 12.4261 9.23995C12.6727 9.23995 12.9039 9.26884 13.1194 9.32662C13.3372 9.38218 13.5316 9.45106 13.7027 9.53329L13.6127 8.63995C13.4572 8.56662 13.2672 8.50329 13.0427 8.44995C12.8205 8.39662 12.5561 8.36995 12.2494 8.36995C11.7383 8.36995 11.3505 8.47218 11.0861 8.67662C10.8239 8.88106 10.6927 9.17662 10.6927 9.56329V9.60662C10.6927 9.85773 10.7416 10.0655 10.8394 10.23C10.9372 10.3922 11.085 10.5277 11.2827 10.6366C11.4827 10.7455 11.7316 10.8444 12.0294 10.9333C12.2272 10.9911 12.3839 11.0455 12.4994 11.0966C12.6172 11.1455 12.7005 11.2 12.7494 11.26C12.8005 11.3177 12.8261 11.3933 12.8261 11.4866V11.51C12.8261 11.65 12.7705 11.7533 12.6594 11.82C12.5505 11.8844 12.3661 11.9166 12.1061 11.9166C11.8372 11.9166 11.5827 11.8822 11.3427 11.8133C11.1027 11.7422 10.895 11.6655 10.7194 11.5833L10.8094 12.5433C10.9161 12.5877 11.0394 12.6311 11.1794 12.6733C11.3216 12.7133 11.4783 12.7455 11.6494 12.77ZM14.9497 8.45995V12.72H15.9863V11.2366H17.7563V10.36H15.9863V9.33662H17.8063V8.45995H14.9497ZM19.8497 12.72V9.32995H18.6731V8.45995H22.0664V9.32995H20.8931V12.72H19.8497ZM24.1167 11.51V12.72H23.09V8.45995H24.88C25.4223 8.45995 25.8189 8.57995 26.07 8.81995C26.3234 9.05995 26.45 9.40329 26.45 9.84995V10.12C26.45 10.5688 26.3234 10.9133 26.07 11.1533C25.8189 11.3911 25.4234 11.51 24.8834 11.51H24.1167Z" fill="currentColor"/>
<path d="M4.00004 6.66683V28.0002H14.6648V30.6668H4.00004C3.2928 30.6668 2.61452 30.3859 2.11442 29.8858C1.61433 29.3857 1.33337 28.7074 1.33337 28.0002V6.66683H4.00004Z" fill="currentColor"/>
</g>
</g>
</svg>
