<svg width="24" height="24" viewBox="0 0 24 24" fill="none" xmlns="http://www.w3.org/2000/svg">
    <path fill-rule="evenodd" clip-rule="evenodd" d="M4.97852 2.03955C3.87395 2.03955 2.97852 2.93498 2.97852 4.03955V19.957C2.97852 21.0616 3.87395 21.957 4.97852 21.957H19.0288C20.1334 21.957 21.0288 21.0616 21.0288 19.957V4.03955C21.0288 2.93498 20.1334 2.03955 19.0288 2.03955H4.97852ZM13.8171 15.075C14.0771 15.115 14.3554 15.135 14.6521 15.135C15.5021 15.135 16.1354 14.975 16.5521 14.655C16.9687 14.3317 17.1771 13.8483 17.1771 13.205V13.125C17.1771 12.735 17.1037 12.4233 16.9571 12.19C16.8137 11.9533 16.5954 11.7617 16.3021 11.615C16.0121 11.465 15.6454 11.325 15.2021 11.195C14.8721 11.0983 14.6171 11.0083 14.4371 10.925C14.2604 10.8417 14.1371 10.755 14.0671 10.665C14.0004 10.575 13.9671 10.47 13.9671 10.35V10.33C13.9671 10.2133 13.9971 10.115 14.0571 10.035C14.1171 9.95167 14.2204 9.88833 14.3671 9.845C14.5171 9.80167 14.7221 9.78 14.9821 9.78C15.3521 9.78 15.6987 9.82333 16.0221 9.91C16.3487 9.99333 16.6404 10.0967 16.8971 10.22L16.7621 8.88C16.5287 8.77 16.2437 8.675 15.9071 8.595C15.5737 8.515 15.1771 8.475 14.7171 8.475C13.9504 8.475 13.3687 8.62833 12.9721 8.935C12.5787 9.24166 12.3821 9.685 12.3821 10.265V10.33C12.3821 10.7067 12.4554 11.0183 12.6021 11.265C12.7487 11.5083 12.9704 11.7117 13.2671 11.875C13.5671 12.0383 13.9404 12.1867 14.3871 12.32C14.6837 12.4067 14.9187 12.4883 15.0921 12.565C15.2687 12.6383 15.3937 12.72 15.4671 12.81C15.5437 12.8967 15.5821 13.01 15.5821 13.15V13.185C15.5821 13.395 15.4987 13.55 15.3321 13.65C15.1687 13.7467 14.8921 13.795 14.5021 13.795C14.0987 13.795 13.7171 13.7433 13.3571 13.64C12.9971 13.5333 12.6854 13.4183 12.4221 13.295L12.5571 14.735C12.7171 14.8017 12.9021 14.8667 13.1121 14.93C13.3254 14.99 13.5604 15.0383 13.8171 15.075ZM6.76198 8.61V15H8.31698V12.775H10.972V11.46H8.31698V9.925H11.047V8.61H6.76198Z" fill="currentColor"/>
</svg>
