<svg width="32" height="33" viewBox="0 0 32 33" fill="none" xmlns="http://www.w3.org/2000/svg">
<g id="SmbTriggers">
<g id="Subtract">
<path d="M23.2595 12.812H22.1805V11.3387H23.3115C23.4877 11.3387 23.6423 11.369 23.7752 11.4297C23.9109 11.4874 24.0164 11.5712 24.0915 11.681C24.1695 11.7879 24.2085 11.9164 24.2085 12.0667C24.2085 12.2776 24.1276 12.4552 23.9658 12.5997C23.8069 12.7412 23.5715 12.812 23.2595 12.812Z" fill="currentColor"/>
<path d="M23.3115 10.186H22.1805V8.79067H23.2422C23.4993 8.79067 23.713 8.85278 23.8835 8.977C24.0539 9.10122 24.1392 9.27744 24.1392 9.50567C24.1392 9.61544 24.1175 9.71367 24.0742 9.80033C24.0308 9.88411 23.9716 9.95489 23.8965 10.0127C23.8214 10.0704 23.7347 10.1138 23.6365 10.1427C23.5383 10.1716 23.4299 10.186 23.3115 10.186Z" fill="currentColor"/>
<path fill-rule="evenodd" clip-rule="evenodd" d="M6.66667 3.64307H25.3333C26.8 3.64307 28 4.95756 28 6.59699V18.2755C27.1702 17.5917 26.1069 17.1809 24.9477 17.1809C22.2955 17.1809 20.1454 19.331 20.1454 21.9832C20.1454 22.4766 20.2198 22.9527 20.3581 23.4007C18.1292 23.8165 16.442 25.7719 16.442 28.1214C16.442 28.8772 16.6166 29.5923 16.9277 30.2284H6.66667C5.95942 30.2284 5.28115 29.9172 4.78105 29.3632C4.28095 28.8092 4 28.0579 4 27.2745V6.59699C4 4.95756 5.18667 3.64307 6.66667 3.64307ZM8.99618 14.021C8.6784 14.021 8.36496 13.982 8.05585 13.904C7.74963 13.8231 7.4694 13.7032 7.21518 13.5443C6.96096 13.3826 6.75007 13.1803 6.58252 12.9377C6.41785 12.695 6.32107 12.4104 6.29218 12.084H7.80018C7.83774 12.2544 7.90996 12.3989 8.01685 12.5173C8.12374 12.6329 8.25952 12.7224 8.42418 12.786C8.59174 12.8467 8.77952 12.877 8.98752 12.877C9.18974 12.877 9.37752 12.8539 9.55085 12.8077C9.72418 12.7614 9.86285 12.6892 9.96685 12.591C10.0737 12.4928 10.1272 12.3613 10.1272 12.1967C10.1272 12.0551 10.0781 11.9424 9.97985 11.8587C9.88452 11.772 9.75741 11.7041 9.59852 11.655C9.43963 11.603 9.26774 11.5597 9.08285 11.525L8.06018 11.33C7.58352 11.2462 7.20218 11.0556 6.91618 10.758C6.63018 10.4604 6.48285 10.0574 6.47418 9.549C6.4684 9.14167 6.57674 8.79211 6.79918 8.50033C7.02452 8.20567 7.3264 7.98033 7.70485 7.82433C8.08329 7.66833 8.50363 7.59033 8.96585 7.59033C9.52052 7.59033 9.98852 7.67411 10.3698 7.84167C10.7541 8.00922 11.0458 8.24033 11.2452 8.535C11.4445 8.82678 11.5471 9.15755 11.5528 9.52733H10.0838C10.0636 9.33667 10.0058 9.18355 9.91052 9.068C9.81518 8.95244 9.68952 8.87011 9.53352 8.821C9.3804 8.769 9.20129 8.743 8.99618 8.743C8.82863 8.743 8.68418 8.76033 8.56285 8.795C8.44152 8.82678 8.3404 8.87155 8.25952 8.92933C8.17863 8.98711 8.11796 9.055 8.07752 9.133C8.03996 9.20811 8.02118 9.28755 8.02118 9.37133C8.02118 9.53311 8.07318 9.66455 8.17718 9.76567C8.28407 9.86389 8.48774 9.94478 8.78818 10.0083L9.80652 10.199C10.2225 10.2741 10.5504 10.3897 10.7902 10.5457C11.03 10.7017 11.2091 10.8779 11.3275 11.0743C11.446 11.2679 11.5211 11.4629 11.5528 11.6593C11.5875 11.8558 11.6048 12.0349 11.6048 12.1967C11.6048 12.5404 11.4922 12.851 11.2668 13.1283C11.0444 13.4057 10.7367 13.6238 10.3438 13.7827C9.95385 13.9416 9.50463 14.021 8.99618 14.021ZM12.6201 13.9343V7.66833H14.7955L16.0175 11.811L17.2525 7.66833H19.4148V13.9343H17.9328V9.26733L16.5678 13.9343H15.4671L14.1021 9.28033V13.9343H12.6201ZM20.7028 7.66833V13.9343H23.2118C24.0958 13.9343 24.7328 13.7957 25.1228 13.5183C25.5128 13.241 25.7078 12.812 25.7078 12.2313C25.7078 12.0984 25.6948 11.9598 25.6688 11.8153C25.6428 11.6709 25.5894 11.5293 25.5085 11.3907C25.4305 11.252 25.3106 11.1234 25.1488 11.005C24.9899 10.8866 24.7776 10.7912 24.5118 10.719C24.9076 10.537 25.1806 10.3333 25.3308 10.108C25.4839 9.87978 25.5605 9.61689 25.5605 9.31933C25.5605 8.78489 25.3612 8.37611 24.9625 8.093C24.5638 7.80989 23.9398 7.66833 23.0905 7.66833H20.7028Z" fill="currentColor"/>
<path d="M23.6511 29.8421C22.6772 31.2229 20.7762 31.5697 19.4022 30.6092C18.0348 29.6487 17.7146 27.7344 18.6751 26.3403C19.2554 25.5065 20.1492 25.0596 21.063 25.0196L21.0964 25.9735C20.4894 26.0201 19.9024 26.3336 19.5222 26.8806C18.8552 27.8411 19.062 29.1351 19.9758 29.7821C20.8963 30.4225 22.1836 30.1757 22.8506 29.2218C23.0574 28.9217 23.1775 28.5948 23.2242 28.2613V27.5876L26.9461 27.561L26.9928 27.4876C27.3463 26.8739 28.1134 26.6605 28.7137 27.0073C29.314 27.3542 29.5208 28.1279 29.1673 28.7416C28.8138 29.3486 28.04 29.562 27.4397 29.2152C27.1662 29.0617 26.9728 28.8149 26.8861 28.5348L24.1713 28.5481C24.098 28.995 23.9245 29.4286 23.6511 29.8421Z" fill="currentColor"/>
<path d="M31.1883 28.4614C31.3951 26.8006 30.1945 25.2864 28.5069 25.0797C28.04 25.0263 27.5865 25.073 27.1729 25.2064L25.9056 22.8652C26.0857 22.6584 26.1991 22.3916 26.2124 22.0981C26.2324 21.4044 25.6788 20.8374 24.9784 20.7974C24.2781 20.7707 23.6777 21.311 23.6577 22.0047C23.6377 22.6984 24.1847 23.2787 24.8917 23.3054H25.0385L26.7594 26.4871L27.3263 26.1936C27.6398 26.0802 27.9867 26.0335 28.3469 26.0735C29.5008 26.2136 30.3279 27.2341 30.1878 28.348C30.0477 29.4619 29.0139 30.2557 27.8466 30.1156C27.1796 30.0289 26.626 29.6621 26.2991 29.1484L25.472 29.6287C25.9456 30.4158 26.766 30.9827 27.7599 31.1028C29.4474 31.3096 30.9816 30.129 31.1883 28.4614Z" fill="currentColor"/>
<path d="M22.177 23.2654C21.5099 21.6979 22.217 19.9036 23.7578 19.2499C25.3053 18.5963 27.0929 19.3366 27.7599 20.9041C28.1534 21.8179 28.0734 22.8185 27.6265 23.6189L26.7994 23.1386C27.0795 22.5984 27.1262 21.938 26.8594 21.3177C26.4058 20.2505 25.1985 19.7369 24.1647 20.1704C23.1241 20.6106 22.6572 21.838 23.1108 22.9052C23.2975 23.3454 23.611 23.6856 23.9912 23.9124L24.2514 24.0524L22.2036 27.3809L22.213 27.3962C22.2314 27.4264 22.2533 27.4622 22.2703 27.5076C22.5972 28.1146 22.3704 28.8816 21.7567 29.2085C21.1497 29.5353 20.3827 29.2952 20.0492 28.6682C19.7223 28.0479 19.9491 27.2808 20.5628 26.954C20.8229 26.8139 21.1097 26.7805 21.3832 26.8406L22.924 24.3259C22.6105 24.0391 22.3437 23.6789 22.177 23.2654Z" fill="currentColor"/>
</g>
</g>
</svg>
