<?xml version="1.0" encoding="utf-8"?>
<svg viewBox="0 0 32 32" fill="none" xmlns="http://www.w3.org/2000/svg">
  <path d="M18.1542 10.6669H17.4642V9.3002H18.1575C18.3753 9.3002 18.532 9.34798 18.6275 9.44353C18.7231 9.53909 18.7709 9.68464 18.7709 9.8802V10.0869C18.7709 10.2802 18.722 10.4258 18.6242 10.5235C18.5286 10.6191 18.372 10.6669 18.1542 10.6669Z" style="fill: rgb(202, 197, 218);" transform="matrix(1, 0, 0, 1, 0, -4.440892098500626e-16)"/>
  <path fill-rule="evenodd" clip-rule="evenodd" d="M6.63798 2.71948C5.16522 2.71948 3.97131 3.91339 3.97131 5.38615V26.6095C3.97131 28.0822 5.16522 29.2761 6.63798 29.2761H25.3717C26.8445 29.2761 28.0384 28.0822 28.0384 26.6095V5.38615C28.0384 3.91339 26.8445 2.71948 25.3717 2.71948H6.63798ZM12.0086 17.3347H9.34192V20.0014H12.0086V17.3347ZM9.34192 22.5649H12.0086V25.2315H9.34192V22.5649ZM22.6507 17.3347H13.3382V20.0014H22.6507V17.3347ZM13.3382 22.5649H22.6507V25.2315H13.3382V22.5649ZM21.6359 12.7702C21.8092 12.7969 21.9948 12.8102 22.1925 12.8102C22.7592 12.8102 23.1814 12.7035 23.4592 12.4902C23.737 12.2746 23.8759 11.9524 23.8759 11.5235V11.4702C23.8759 11.2102 23.827 11.0024 23.7292 10.8469C23.6336 10.6891 23.4881 10.5613 23.2925 10.4635C23.0992 10.3635 22.8548 10.2702 22.5592 10.1835C22.3392 10.1191 22.1692 10.0591 22.0492 10.0035C21.9314 9.94798 21.8492 9.8902 21.8025 9.8302C21.7581 9.7702 21.7359 9.7002 21.7359 9.6202V9.60687C21.7359 9.52909 21.7559 9.46353 21.7959 9.4102C21.8359 9.35464 21.9048 9.31242 22.0025 9.28353C22.1025 9.25464 22.2392 9.2402 22.4125 9.2402C22.6592 9.2402 22.8903 9.26909 23.1059 9.32687C23.3236 9.38242 23.5181 9.45131 23.6892 9.53353L23.5992 8.6402C23.4436 8.56686 23.2536 8.50353 23.0292 8.4502C22.807 8.39686 22.5425 8.3702 22.2359 8.3702C21.7248 8.3702 21.337 8.47242 21.0725 8.67686C20.8103 8.88131 20.6792 9.17686 20.6792 9.56353V9.60687C20.6792 9.85798 20.7281 10.0658 20.8259 10.2302C20.9236 10.3924 21.0714 10.528 21.2692 10.6369C21.4692 10.7458 21.7181 10.8446 22.0159 10.9335C22.2136 10.9913 22.3703 11.0458 22.4859 11.0969C22.6036 11.1458 22.687 11.2002 22.7359 11.2602C22.787 11.318 22.8125 11.3935 22.8125 11.4869V11.5102C22.8125 11.6502 22.757 11.7535 22.6459 11.8202C22.537 11.8846 22.3525 11.9169 22.0925 11.9169C21.8236 11.9169 21.5692 11.8824 21.3292 11.8135C21.0892 11.7424 20.8814 11.6658 20.7059 11.5835L20.7959 12.5435C20.9025 12.588 21.0259 12.6313 21.1659 12.6735C21.3081 12.7135 21.4648 12.7458 21.6359 12.7702ZM8.30383 8.4602V12.7202H9.3405V11.2369H11.1105V10.3602H9.3405V9.33686H11.1605V8.4602H8.30383ZM13.2039 9.3302V12.7202H14.2472V9.3302H15.4206V8.4602H12.0272V9.3302H13.2039ZM17.4709 12.7202V11.5102H18.2375C18.7775 11.5102 19.1731 11.3913 19.4242 11.1535C19.6775 10.9135 19.8042 10.5691 19.8042 10.1202V9.8502C19.8042 9.40353 19.6775 9.0602 19.4242 8.8202C19.1731 8.5802 18.7764 8.4602 18.2342 8.4602H16.4442V12.7202H17.4709Z" style="fill: rgb(202, 197, 218);" transform="matrix(1, 0, 0, 1, 0, -4.440892098500626e-16)"/>
</svg>
