<?xml version="1.0" encoding="utf-8"?>
<svg viewBox="0 0 32 32" fill="none" xmlns="http://www.w3.org/2000/svg">
  <g id="FtpDelete" transform="matrix(1, 0, 0, 1, 0, -4.440892098500626e-16)">
    <path id="Subtract" fill-rule="evenodd" clip-rule="evenodd" d="M3.96167 5.38591C3.96167 3.91315 5.15558 2.71924 6.62834 2.71924H25.3718C26.8446 2.71924 28.0385 3.91315 28.0385 5.38591V17.7815C27.1629 17.453 26.2145 17.2733 25.2241 17.2733C20.7992 17.2733 17.2122 20.8603 17.2122 25.2852C17.2122 26.75 17.6053 28.1231 18.2918 29.3045H6.62834C5.15558 29.3045 3.96167 28.1106 3.96167 26.6379V5.38591ZM30.0534 22.5065L27.2134 25.3331L30.0534 28.1598L28.1601 30.0531L25.3334 27.2131L22.5068 30.0531L20.6134 28.1598L23.4534 25.3331L20.6134 22.5065L22.5068 20.6131L25.3334 23.4531L28.1601 20.6131L30.0534 22.5065ZM8.08146 14.053V8.08903H8.50146H9.53279H12.0808V9.31636H9.53279V10.749H12.0108V11.9764H9.53279V14.053H8.08146ZM14.9506 14.053V9.30703H13.3033V8.08903H18.054V9.30703H16.4113V14.053H14.9506ZM20.9244 12.359V14.053H19.4871V8.08903H20.4624H20.9151H21.9931C22.7522 8.08903 23.3075 8.25703 23.6591 8.59303C24.0138 8.92903 24.1911 9.4097 24.1911 10.035V10.413C24.1911 11.0415 24.0138 11.5237 23.6591 11.8597C23.3075 12.1926 22.7538 12.359 21.9978 12.359H20.9244ZM20.9151 11.1784H21.8811C22.186 11.1784 22.4053 11.1115 22.5391 10.9777C22.676 10.8408 22.7444 10.637 22.7444 10.3664V10.077C22.7444 9.80325 22.6775 9.59947 22.5438 9.4657C22.41 9.33192 22.1906 9.26503 21.8858 9.26503H20.9151V11.1784Z" style="fill: rgb(202, 197, 218);"/>
  </g>
</svg>
