<svg width="32" height="32" viewBox="0 0 32 32" fill="none" xmlns="http://www.w3.org/2000/svg">
<g id="SmbUploads">
<g id="Subtract">
<path d="M25.6151 13.2218H24.5361V11.7485H25.6671C25.8434 11.7485 25.9979 11.7788 26.1308 11.8395C26.2666 11.8973 26.372 11.9811 26.4471 12.0908C26.5251 12.1977 26.5641 12.3263 26.5641 12.4765C26.5641 12.6874 26.4832 12.8651 26.3215 13.0095C26.1626 13.1511 25.9271 13.2218 25.6151 13.2218Z" fill="currentColor"/>
<path d="M25.6671 10.5958H24.5361V9.2005H25.5978C25.8549 9.2005 26.0687 9.26261 26.2391 9.38683C26.4096 9.51105 26.4948 9.68727 26.4948 9.9155C26.4948 10.0253 26.4731 10.1235 26.4298 10.2102C26.3865 10.2939 26.3272 10.3647 26.2521 10.4225C26.177 10.4803 26.0904 10.5236 25.9921 10.5525C25.8939 10.5814 25.7856 10.5958 25.6671 10.5958Z" fill="currentColor"/>
<path fill-rule="evenodd" clip-rule="evenodd" d="M9.33337 1.3335H28C29.4667 1.3335 30.6667 2.52016 30.6667 4.00016V19.5602C29.2301 18.1385 27.2542 17.2606 25.0734 17.2606C20.6815 17.2606 17.1212 20.8209 17.1212 25.2127C17.1212 25.2531 17.1215 25.2933 17.1221 25.3335H9.33337C7.86671 25.3335 6.66671 24.1468 6.66671 22.6668V4.00016C6.66671 2.52016 7.85337 1.3335 9.33337 1.3335ZM11.3518 14.4308C11.034 14.4308 10.7206 14.3918 10.4115 14.3138C10.1053 14.2329 9.82505 14.1131 9.57083 13.9542C9.3166 13.7924 9.10572 13.5902 8.93816 13.3475C8.77349 13.1048 8.67672 12.8203 8.64783 12.4938H10.1558C10.1934 12.6643 10.2656 12.8087 10.3725 12.9272C10.4794 13.0427 10.6152 13.1323 10.7798 13.1958C10.9474 13.2565 11.1352 13.2868 11.3432 13.2868C11.5454 13.2868 11.7332 13.2637 11.9065 13.2175C12.0798 13.1713 12.2185 13.0991 12.3225 13.0008C12.4294 12.9026 12.4828 12.7712 12.4828 12.6065C12.4828 12.4649 12.4337 12.3523 12.3355 12.2685C12.2402 12.1818 12.113 12.1139 11.9542 12.0648C11.7953 12.0128 11.6234 11.9695 11.4385 11.9348L10.4158 11.7398C9.93916 11.6561 9.55783 11.4654 9.27183 11.1678C8.98583 10.8703 8.83849 10.4673 8.82983 9.95883C8.82405 9.5515 8.93238 9.20194 9.15483 8.91016C9.38016 8.6155 9.68205 8.39016 10.0605 8.23416C10.4389 8.07816 10.8593 8.00016 11.3215 8.00016C11.8762 8.00016 12.3442 8.08394 12.7255 8.2515C13.1097 8.41905 13.4015 8.65016 13.6008 8.94483C13.8002 9.23661 13.9027 9.56738 13.9085 9.93716H12.4395C12.4193 9.7465 12.3615 9.59338 12.2662 9.47783C12.1708 9.36227 12.0452 9.27994 11.8892 9.23083C11.736 9.17883 11.5569 9.15283 11.3518 9.15283C11.1843 9.15283 11.0398 9.17016 10.9185 9.20483C10.7972 9.23661 10.696 9.28138 10.6152 9.33916C10.5343 9.39694 10.4736 9.46483 10.4332 9.54283C10.3956 9.61794 10.3768 9.69738 10.3768 9.78116C10.3768 9.94294 10.4288 10.0744 10.5328 10.1755C10.6397 10.2737 10.8434 10.3546 11.1438 10.4182L12.1622 10.6088C12.5782 10.6839 12.906 10.7995 13.1458 10.9555C13.3856 11.1115 13.5647 11.2877 13.6832 11.4842C13.8016 11.6777 13.8767 11.8727 13.9085 12.0692C13.9432 12.2656 13.9605 12.4447 13.9605 12.6065C13.9605 12.9503 13.8478 13.2608 13.6225 13.5382C13.4 13.8155 13.0924 14.0336 12.6995 14.1925C12.3095 14.3514 11.8603 14.4308 11.3518 14.4308ZM14.9758 14.3442V8.07816H17.1511L18.3731 12.2208L19.6081 8.07816H21.7704V14.3442H20.2884V9.67716L18.9234 14.3442H17.8228L16.4578 9.69016V14.3442H14.9758ZM23.0585 8.07816V14.3442H25.5675C26.4515 14.3442 27.0885 14.2055 27.4785 13.9282C27.8685 13.6508 28.0635 13.2218 28.0635 12.6412C28.0635 12.5083 28.0505 12.3696 28.0245 12.2252C27.9985 12.0807 27.945 11.9392 27.8641 11.8005C27.7861 11.6618 27.6662 11.5333 27.5045 11.4148C27.3456 11.2964 27.1332 11.2011 26.8675 11.1288C27.2632 10.9468 27.5362 10.7432 27.6865 10.5178C27.8396 10.2896 27.9161 10.0267 27.9161 9.72916C27.9161 9.19472 27.7168 8.78594 27.3181 8.50283C26.9195 8.21972 26.2955 8.07816 25.4461 8.07816H23.0585Z" fill="currentColor"/>
<path d="M4.00004 6.66683V28.0002H14.6695V30.6668H4.00004C3.2928 30.6668 2.61452 30.3859 2.11442 29.8858C1.61433 29.3857 1.33337 28.7074 1.33337 28.0002V6.66683H4.00004Z" fill="currentColor"/>
<path d="M21.0733 24.6668L25.0733 20.6668L29.0733 24.6668H26.4066V30.0002H23.7399V24.6668H21.0733Z" fill="currentColor"/>
</g>
</g>
</svg>
