<svg width="26" height="28" viewBox="0 0 26 28" fill="none" xmlns="http://www.w3.org/2000/svg">
    <path d="M25.6667 24.0001L21.6667 28.0001L17.6667 24.0001H20.3334V18.6667H23.0001V24.0001H25.6667Z" fill="currentColor"/>
    <path d="M15.1543 8.66687H14.4643V7.3002H15.1577C15.3754 7.3002 15.5321 7.34798 15.6277 7.44353C15.7232 7.53909 15.771 7.68464 15.771 7.8802V8.08686C15.771 8.2802 15.7221 8.42575 15.6243 8.52353C15.5288 8.61909 15.3721 8.66687 15.1543 8.66687Z" fill="currentColor"/>
    <path fill-rule="evenodd" clip-rule="evenodd" d="M0.96167 3.38615C0.96167 1.91339 2.15558 0.719482 3.62834 0.719482H22.3718C23.8446 0.719482 25.0385 1.91339 25.0385 3.38615V15.7818C24.1629 15.4532 23.2145 15.2735 22.2241 15.2735C17.7992 15.2735 14.2122 18.8606 14.2122 23.2854C14.2122 24.7503 14.6053 26.1233 15.2918 27.3048H3.62834C2.15558 27.3048 0.96167 26.1109 0.96167 24.6381V3.38615ZM18.636 10.7702C18.8093 10.7969 18.9949 10.8102 19.1927 10.8102C19.7593 10.8102 20.1815 10.7035 20.4593 10.4902C20.7371 10.2746 20.876 9.95242 20.876 9.52353V9.4702C20.876 9.2102 20.8271 9.00242 20.7293 8.84687C20.6338 8.68909 20.4882 8.56131 20.2927 8.46353C20.0993 8.36353 19.8549 8.2702 19.5593 8.18353C19.3393 8.11909 19.1693 8.05909 19.0493 8.00353C18.9315 7.94798 18.8493 7.8902 18.8027 7.8302C18.7582 7.7702 18.736 7.7002 18.736 7.6202V7.60687C18.736 7.52909 18.756 7.46353 18.796 7.4102C18.836 7.35464 18.9049 7.31242 19.0027 7.28353C19.1027 7.25464 19.2393 7.2402 19.4127 7.2402C19.6593 7.2402 19.8904 7.26909 20.106 7.32687C20.3238 7.38242 20.5182 7.45131 20.6893 7.53353L20.5993 6.6402C20.4438 6.56686 20.2538 6.50353 20.0293 6.4502C19.8071 6.39686 19.5427 6.3702 19.236 6.3702C18.7249 6.3702 18.3371 6.47242 18.0727 6.67686C17.8104 6.88131 17.6793 7.17686 17.6793 7.56353V7.60687C17.6793 7.85798 17.7282 8.06575 17.826 8.2302C17.9238 8.39242 18.0715 8.52798 18.2693 8.63687C18.4693 8.74575 18.7182 8.84464 19.016 8.93353C19.2138 8.99131 19.3704 9.04575 19.486 9.09687C19.6038 9.14575 19.6871 9.2002 19.736 9.2602C19.7871 9.31798 19.8127 9.39353 19.8127 9.48686V9.5102C19.8127 9.6502 19.7571 9.75353 19.646 9.8202C19.5371 9.88464 19.3527 9.91687 19.0927 9.91687C18.8238 9.91687 18.5693 9.88242 18.3293 9.81353C18.0893 9.74242 17.8815 9.66575 17.706 9.58353L17.796 10.5435C17.9027 10.588 18.026 10.6313 18.166 10.6735C18.3082 10.7135 18.4649 10.7458 18.636 10.7702ZM5.30396 6.4602V10.7202H6.34062V9.23686H8.11062V8.3602H6.34062V7.33686H8.16062V6.4602H5.30396ZM10.204 7.3302V10.7202H11.2473V7.3302H12.4207V6.4602H9.02734V7.3302H10.204ZM14.471 10.7202V9.5102H15.2377C15.7777 9.5102 16.1732 9.39131 16.4243 9.15353C16.6777 8.91353 16.8043 8.56909 16.8043 8.1202V7.8502C16.8043 7.40353 16.6777 7.0602 16.4243 6.8202C16.1732 6.5802 15.7765 6.4602 15.2343 6.4602H13.4443V10.7202H14.471Z" fill="currentColor"/>
</svg>
