<?xml version="1.0" encoding="utf-8"?>
<svg version="1.1" id="Calque_1" xmlns="http://www.w3.org/2000/svg" xmlns:xlink="http://www.w3.org/1999/xlink" x="0px" y="0px"
     viewBox="0 0 24 24" style="enable-background:new 0 0 24 24;" xml:space="preserve">
<style type="text/css">
	.st0{fill:none;}
	.st1{fill:#0F1724;}
</style>
    <g>
	<rect x="5" y="4" class="st0" width="2" height="2"/>
        <rect x="9" y="4" class="st0" width="1" height="2"/>
        <path class="st1" d="M4,8h16c0.6,0,1-0.4,1-1V3c0-0.6-0.4-1-1-1H4C3.4,2,3,2.4,3,3v4C3,7.6,3.4,8,4,8z M9,4h1v2H9V4z M5,4h2v2H5V4z
		"/>
        <path class="st1" d="M15,19c0-0.6-0.4-1-1-1h-1v-2h7c0.6,0,1-0.4,1-1v-4c0-0.6-0.4-1-1-1H4c-0.6,0-1,0.4-1,1v4c0,0.6,0.4,1,1,1h7v2
		h-1c-0.6,0-1,0.4-1,1H2v2h7c0,0.6,0.4,1,1,1h4c0.6,0,1-0.4,1-1h7v-2H15z M16.9,13.6c0-0.1-0.1-0.1-0.2-0.2
		c-0.1-0.1-0.2-0.1-0.3-0.1s-0.2-0.1-0.3-0.1c-0.1,0-0.2-0.1-0.4-0.1c-0.1-0.1-0.2-0.1-0.3-0.2c-0.1-0.1-0.1-0.2-0.2-0.3
		c0-0.1-0.1-0.2-0.1-0.4c0-0.3,0.1-0.5,0.3-0.7c0.2-0.2,0.5-0.3,0.9-0.3c0.2,0,0.4,0,0.6,0.1s0.3,0.1,0.4,0.1l-0.2,0.4
		c-0.1,0-0.2-0.1-0.3-0.1s-0.3-0.1-0.5-0.1c-0.1,0-0.2,0-0.3,0s-0.2,0.1-0.2,0.1c-0.1,0-0.1,0.1-0.1,0.2c0,0.1-0.1,0.1-0.1,0.2
		c0,0.1,0,0.2,0.1,0.2c0,0.1,0.1,0.1,0.2,0.2s0.1,0.1,0.2,0.1c0.1,0,0.2,0.1,0.3,0.1c0.1,0.1,0.3,0.1,0.4,0.2
		c0.1,0.1,0.2,0.1,0.3,0.2s0.2,0.2,0.2,0.3c0.1,0.1,0.1,0.3,0.1,0.4c0,0.3-0.1,0.5-0.3,0.7s-0.5,0.2-0.9,0.2c-0.1,0-0.3,0-0.4,0
		c-0.1,0-0.2,0-0.3-0.1s-0.2-0.1-0.2-0.1c-0.1,0-0.1-0.1-0.2-0.1l0.1-0.4c0.1,0,0.2,0.1,0.4,0.1c0.2,0.1,0.3,0.1,0.6,0.1
		c0.5,0,0.8-0.2,0.8-0.5C17,13.7,16.9,13.7,16.9,13.6z M8.9,11.7H7.3v1h1.4v0.4H7.3v1.6H6.8v-3.5h2.1V11.7z M11.8,11.7h-1.1v3h-0.5
		v-3H9.2v-0.4h2.7V11.7z M12.8,14.7h-0.5v-3.4c0.1,0,0.3-0.1,0.5-0.1c0.2,0,0.3,0,0.5,0c0.5,0,0.9,0.1,1.1,0.3s0.4,0.5,0.4,0.8
		c0,0.2,0,0.4-0.1,0.5c-0.1,0.1-0.2,0.3-0.3,0.3c-0.1,0.1-0.3,0.2-0.5,0.2s-0.4,0.1-0.7,0.1h-0.4V14.7z"/>
        <path class="st1" d="M14,12.9c0.1-0.1,0.2-0.1,0.2-0.2c0-0.1,0.1-0.2,0.1-0.3c0-0.1,0-0.2-0.1-0.3s-0.1-0.2-0.2-0.2
		c-0.1-0.1-0.2-0.1-0.3-0.1s-0.2,0-0.4,0c-0.2,0-0.4,0-0.5,0V13h0.4c0.2,0,0.3,0,0.4,0C13.8,13,13.9,12.9,14,12.9z"/>
</g>
</svg>
