<svg width="32" height="33" viewBox="0 0 32 33" fill="none" xmlns="http://www.w3.org/2000/svg">
<g id="FtpTriggers">
<g id="Vector">
<path d="M19.9842 11.1077H20.6722C20.9095 11.1077 21.0788 11.0597 21.1802 10.9637C21.2842 10.8677 21.3362 10.7144 21.3362 10.5037V10.2997C21.3362 10.0891 21.2842 9.93572 21.1802 9.83972C21.0788 9.74105 20.9095 9.69172 20.6722 9.69172H19.9842V11.1077Z" fill="currentColor"/>
<path fill-rule="evenodd" clip-rule="evenodd" d="M25.3333 3.64307H6.66667C5.18667 3.64307 4 4.95756 4 6.59699V27.2745C4 28.0579 4.28095 28.8092 4.78105 29.3632C5.28115 29.9172 5.95942 30.2284 6.66667 30.2284H16.9277C16.6166 29.5923 16.442 28.8772 16.442 28.1214C16.442 25.7719 18.1292 23.8165 20.3581 23.4007C20.2198 22.9527 20.1454 22.4766 20.1454 21.9832C20.1454 19.331 22.2955 17.1809 24.9477 17.1809C26.1069 17.1809 27.1702 17.5917 28 18.2755V6.59699C28 4.95756 26.8 3.64307 25.3333 3.64307ZM9.45129 13.6437V8.53172H13.0033V9.75172H10.8913V10.7677H12.9393V11.9837H10.8913V13.6437H9.45129ZM14.9819 13.6437V9.73572H13.6099V8.53172H17.8019V9.73572H16.4339V13.6437H14.9819ZM19.9922 12.2717V13.6437H18.5682V8.53172H20.8002C21.4775 8.53172 21.9748 8.67972 22.2922 8.97572C22.6095 9.26905 22.7682 9.69572 22.7682 10.2557V10.5517C22.7682 11.1144 22.6095 11.5424 22.2922 11.8357C21.9748 12.1264 21.4802 12.2717 20.8082 12.2717H19.9922Z" fill="currentColor"/>
<path d="M23.6511 29.8421C22.6772 31.2229 20.7762 31.5697 19.4022 30.6092C18.0348 29.6487 17.7146 27.7344 18.6751 26.3403C19.2554 25.5065 20.1492 25.0596 21.063 25.0196L21.0964 25.9735C20.4894 26.0201 19.9024 26.3336 19.5222 26.8806C18.8552 27.8411 19.062 29.1351 19.9758 29.7821C20.8963 30.4225 22.1836 30.1757 22.8506 29.2218C23.0574 28.9217 23.1775 28.5948 23.2242 28.2613V27.5876L26.9461 27.561L26.9928 27.4876C27.3463 26.8739 28.1134 26.6605 28.7137 27.0073C29.314 27.3542 29.5208 28.1279 29.1673 28.7416C28.8138 29.3486 28.04 29.562 27.4397 29.2152C27.1662 29.0617 26.9728 28.8149 26.8861 28.5348L24.1713 28.5481C24.098 28.995 23.9245 29.4286 23.6511 29.8421ZM28.5069 25.0797C30.1945 25.2864 31.3951 26.8006 31.1883 28.4614C30.9816 30.129 29.4474 31.3096 27.7599 31.1028C26.766 30.9827 25.9456 30.4158 25.472 29.6287L26.2991 29.1484C26.626 29.6621 27.1796 30.0289 27.8466 30.1156C29.0139 30.2557 30.0477 29.4619 30.1878 28.348C30.3279 27.2341 29.5008 26.2136 28.3469 26.0735C27.9867 26.0335 27.6398 26.0802 27.3263 26.1936L26.7594 26.4871L25.0385 23.3054H24.8917C24.1847 23.2787 23.6377 22.6984 23.6577 22.0047C23.6777 21.311 24.2781 20.7707 24.9784 20.7974C25.6788 20.8374 26.2324 21.4044 26.2124 22.0981C26.1991 22.3916 26.0857 22.6584 25.9056 22.8652L27.1729 25.2064C27.5865 25.073 28.04 25.0263 28.5069 25.0797ZM22.177 23.2654C21.5099 21.6979 22.217 19.9036 23.7578 19.2499C25.3053 18.5963 27.0929 19.3366 27.7599 20.9041C28.1534 21.8179 28.0734 22.8185 27.6265 23.6189L26.7994 23.1386C27.0795 22.5984 27.1262 21.938 26.8594 21.3177C26.4058 20.2505 25.1985 19.7369 24.1647 20.1704C23.1241 20.6106 22.6572 21.838 23.1108 22.9052C23.2975 23.3454 23.611 23.6856 23.9912 23.9124L24.2514 24.0524L22.2036 27.3809C22.2236 27.4142 22.2503 27.4542 22.2703 27.5076C22.5972 28.1146 22.3704 28.8816 21.7567 29.2085C21.1497 29.5353 20.3827 29.2952 20.0492 28.6682C19.7223 28.0479 19.9491 27.2808 20.5628 26.954C20.8229 26.8139 21.1097 26.7805 21.3832 26.8406L22.924 24.3259C22.6105 24.0391 22.3437 23.6789 22.177 23.2654Z" fill="currentColor"/>
</g>
</g>
</svg>
