<svg width="24" height="24" viewBox="0 0 24 24" fill="none" xmlns="http://www.w3.org/2000/svg">
<path d="M2 6V20H20V22H2C1.46957 22 0.96101 21.7891 0.585938 21.4141C0.210865 21.039 0 20.5304 0 20V6H2Z" fill="white"/>
<path fill-rule="evenodd" clip-rule="evenodd" d="M12 2L14 4H22C22.5304 4 23.039 4.21086 23.4141 4.58594C23.7891 4.96101 24 5.46957 24 6V16C24 16.5304 23.7891 17.039 23.4141 17.4141C23.039 17.7891 22.5304 18 22 18H6C5.46957 18 4.96101 17.7891 4.58594 17.4141C4.21086 17.039 4 16.5304 4 16V4C4 3.46957 4.21086 2.96101 4.58594 2.58594C4.96101 2.21086 5.46957 2 6 2H12ZM16.0176 7.02637V11.0166H12.793L17.0225 15.29L21.2607 11.0166H18.0176V7.02637H16.0176Z" fill="currentColor"/>
</svg>
