<?xml version="1.0" encoding="utf-8"?>
<svg viewBox="0 0 32 32" fill="none" xmlns="http://www.w3.org/2000/svg">
  <g id="FtpDownloads">
    <g id="Vector">
      <path d="M23.9251 11.1787H24.8911C25.1959 11.1787 25.4153 11.1118 25.5491 10.978C25.6859 10.8411 25.7544 10.6374 25.7544 10.3667V10.0774C25.7544 9.80358 25.6875 9.5998 25.5537 9.46602C25.4199 9.33224 25.2006 9.26536 24.8957 9.26536H23.9251V11.1787Z" style="fill: rgb(202, 197, 218);"/>
      <path fill-rule="evenodd" clip-rule="evenodd" d="M28 1.3335H9.33337C7.85337 1.3335 6.66671 2.52016 6.66671 4.00016V22.6668C6.66671 24.1468 7.86671 25.3335 9.33337 25.3335H17.1221C17.1215 25.2933 17.1212 25.2531 17.1212 25.2127C17.1212 20.8209 20.6815 17.2606 25.0734 17.2606C27.2542 17.2606 29.2301 18.1385 30.6667 19.5602V4.00016C30.6667 2.52016 29.4667 1.3335 28 1.3335ZM11.0914 14.0534V8.08935H15.0908V9.31669H12.5428V10.7494H15.0208V11.9767H12.5428V14.0534H11.0914ZM17.9606 14.0534V9.30735H16.3133V8.08935H21.0639V9.30735H19.4213V14.0534H17.9606ZM23.9344 12.3594V14.0534H22.4971V8.08935H25.0031C25.7622 8.08935 26.3175 8.25736 26.6691 8.59336C27.0237 8.92936 27.2011 9.41002 27.2011 10.0354V10.4134C27.2011 11.0418 27.0237 11.524 26.6691 11.86C26.3175 12.1929 25.7637 12.3594 25.0077 12.3594H23.9344Z" style="fill: rgb(202, 197, 218);"/>
      <path d="M4.00004 6.66683V28.0002H14.6648V30.6668H4.00004C3.2928 30.6668 2.61452 30.3859 2.11442 29.8858C1.61433 29.3857 1.33337 28.7074 1.33337 28.0002V6.66683H4.00004Z" style="fill: rgb(202, 197, 218);"/>
      <path d="M28.6667 26.0002L24.6667 30.0002L20.6667 26.0002H23.3334V20.6668H26V26.0002H28.6667Z" style="fill: rgb(202, 197, 218);"/>
    </g>
  </g>
</svg>