<?xml version="1.0" encoding="UTF-8" standalone="no"?>
<svg
   xmlns:dc="http://purl.org/dc/elements/1.1/"
   xmlns:cc="http://creativecommons.org/ns#"
   xmlns:rdf="http://www.w3.org/1999/02/22-rdf-syntax-ns#"
   xmlns:svg="http://www.w3.org/2000/svg"
   xmlns="http://www.w3.org/2000/svg"
   xmlns:sodipodi="http://sodipodi.sourceforge.net/DTD/sodipodi-0.dtd"
   xmlns:inkscape="http://www.inkscape.org/namespaces/inkscape"
   width="16"
   height="16"
   preserveAspectRatio="xMidYMid meet"
   viewBox="0 0 16 16"
   style="-ms-transform: rotate(360deg); -webkit-transform: rotate(360deg); transform: rotate(360deg);"
   version="1.1"
   id="svg14"
   sodipodi:docname="server.svg"
   inkscape:version="0.92.5 (2060ec1f9f, 2020-04-08)">
  <metadata
     id="metadata20">
    <rdf:RDF>
      <cc:Work
         rdf:about="">
        <dc:format>image/svg+xml</dc:format>
        <dc:type
           rdf:resource="http://purl.org/dc/dcmitype/StillImage" />
      </cc:Work>
    </rdf:RDF>
  </metadata>
  <defs
     id="defs18" />
  <sodipodi:namedview
     pagecolor="#ffffff"
     bordercolor="#666666"
     borderopacity="1"
     objecttolerance="10"
     gridtolerance="10"
     guidetolerance="10"
     inkscape:pageopacity="0"
     inkscape:pageshadow="2"
     inkscape:window-width="1920"
     inkscape:window-height="1022"
     id="namedview16"
     showgrid="false"
     inkscape:zoom="14.75"
     inkscape:cx="21.9904"
     inkscape:cy="13.102489"
     inkscape:window-x="2560"
     inkscape:window-y="0"
     inkscape:window-maximized="1"
     inkscape:current-layer="g10" />
  <g
     id="g10"
     transform="translate(31.186441,-0.20338983)"
     style="fill:#626262">
    <path
       d="m -23.25533,2.0674987 c -2.761,0 -5,0.895 -5,2 v 8.0000003 a 5,2 0 0 0 5,2 5,2 0 0 0 5,-2 V 4.0674987 c 0,-1.105 -2.239,-2 -5,-2 z m -3.353516,5.5878906 h 0.404297 v 0.7460938 h 0.753906 V 7.6553893 h 0.402344 v 1.9042969 h -0.402344 V 8.7374206 h -0.753906 v 0.8222656 h -0.404297 z m 1.855469,0 h 1.4375 v 0.3359376 h -0.517578 v 1.5683593 h -0.404297 V 7.9913269 h -0.515625 z m 1.542969,0 h 1.4375 v 0.3359376 h -0.515625 V 9.5596862 H -22.69283 V 7.9913269 h -0.517578 z m 1.730468,0 h 0.609375 c 0.230903,0 0.405599,0.050564 0.525391,0.1503907 0.12066,0.098958 0.18164,0.2463107 0.181641,0.4433593 0,0.2048612 -0.06489,0.3621962 -0.19336,0.4707032 -0.127604,0.1085069 -0.308811,0.1621094 -0.544922,0.1621094 h -0.173828 v 0.6777343 h -0.404297 z m 0.404297,0.3300782 v 0.5664062 h 0.132813 c 0.124132,0 0.217665,-0.025608 0.279297,-0.074219 0.06163,-0.049479 0.0918,-0.1210938 0.0918,-0.2148438 0,-0.094618 -0.02604,-0.1638455 -0.07813,-0.2089843 -0.05122,-0.045139 -0.131944,-0.068359 -0.242187,-0.068359 z"
       id="path2"
       inkscape:connector-curvature="0" />
  </g>
</svg>
