<svg width="24" height="24" viewBox="0 0 24 24" fill="none" xmlns="http://www.w3.org/2000/svg">
    <path d="M17.3503 11.7578H18.0748C18.3034 11.7578 18.4679 11.7076 18.5683 11.6073C18.6709 11.5046 18.7223 11.3518 18.7223 11.1488V10.9318C18.7223 10.7264 18.6721 10.5736 18.5718 10.4733C18.4714 10.3729 18.3069 10.3228 18.0783 10.3228H17.3503V11.7578Z" fill="currentColor"/>
    <path fill-rule="evenodd" clip-rule="evenodd" d="M4.97852 2.03955C3.87395 2.03955 2.97852 2.93498 2.97852 4.03955V19.957C2.97852 21.0616 3.87395 21.957 4.97852 21.957H19.0288C20.1334 21.957 21.0288 21.0616 21.0288 19.957V4.03955C21.0288 2.93498 20.1334 2.03955 19.0288 2.03955H4.97852ZM5.52659 13.9663C5.70859 13.9943 5.90343 14.0083 6.11109 14.0083C6.70609 14.0083 7.14943 13.8963 7.44109 13.6723C7.73276 13.4459 7.87859 13.1076 7.87859 12.6573V12.6013C7.87859 12.3283 7.82726 12.1101 7.7246 11.9468C7.62426 11.7811 7.47143 11.6469 7.2661 11.5443C7.0631 11.4393 6.80643 11.3413 6.49609 11.2503C6.26509 11.1826 6.08659 11.1196 5.96059 11.0613C5.83693 11.0029 5.75059 10.9423 5.70159 10.8793C5.65493 10.8163 5.63159 10.7428 5.63159 10.6588V10.6448C5.63159 10.5631 5.65259 10.4943 5.69459 10.4383C5.73659 10.3799 5.80893 10.3356 5.91159 10.3053C6.01659 10.2749 6.16009 10.2598 6.34209 10.2598C6.60109 10.2598 6.84376 10.2901 7.0701 10.3508C7.29876 10.4091 7.50293 10.4814 7.6826 10.5678L7.58809 9.62976C7.42476 9.55276 7.22526 9.48626 6.98959 9.43026C6.75626 9.37426 6.47859 9.34626 6.15659 9.34626C5.61993 9.34626 5.21276 9.45359 4.93509 9.66826C4.65976 9.88293 4.52209 10.1933 4.52209 10.5993V10.6448C4.52209 10.9084 4.57343 11.1266 4.67609 11.2993C4.77876 11.4696 4.93393 11.6119 5.14159 11.7263C5.35159 11.8406 5.61293 11.9444 5.92559 12.0378C6.13326 12.0984 6.29776 12.1556 6.4191 12.2093C6.54276 12.2606 6.63026 12.3178 6.68159 12.3808C6.73526 12.4414 6.76209 12.5208 6.76209 12.6188V12.6433C6.76209 12.7903 6.70376 12.8988 6.58709 12.9688C6.47276 13.0364 6.27909 13.0703 6.00609 13.0703C5.72376 13.0703 5.45659 13.0341 5.20459 12.9618C4.95259 12.8871 4.73443 12.8066 4.55009 12.7203L4.64459 13.7283C4.75659 13.7749 4.88609 13.8204 5.03309 13.8648C5.18243 13.9068 5.34693 13.9406 5.52659 13.9663ZM8.57187 9.44076V13.9138H9.66037V12.3563H11.5189V11.4358H9.66037V10.3613H11.5714V9.44076H8.57187ZM13.2969 13.9138V10.3543H12.0614V9.44076H15.6244V10.3543H14.3924V13.9138H13.2969ZM17.3573 12.6433V13.9138H16.2793V9.44076H18.1588C18.7281 9.44076 19.1446 9.56676 19.4083 9.81876C19.6743 10.0708 19.8073 10.4313 19.8073 10.9003V11.1838C19.8073 11.6551 19.6743 12.0168 19.4083 12.2688C19.1446 12.5184 18.7293 12.6433 18.1623 12.6433H17.3573Z" fill="currentColor"/>
</svg>
