<svg width="26" height="28" viewBox="0 0 26 28" fill="none" xmlns="http://www.w3.org/2000/svg">
    <path d="M17.6666 22.6667L21.6666 18.6667L25.6666 22.6667H23V28.0001H20.3333V22.6667H17.6666Z" fill="currentColor"/>
    <path d="M15.1542 8.66654H14.4642V7.29987H15.1575C15.3753 7.29987 15.532 7.34765 15.6275 7.44321C15.7231 7.53876 15.7709 7.68432 15.7709 7.87987V8.08654C15.7709 8.27987 15.722 8.42543 15.6242 8.52321C15.5286 8.61876 15.372 8.66654 15.1542 8.66654Z" fill="currentColor"/>
    <path fill-rule="evenodd" clip-rule="evenodd" d="M0.961548 3.38615C0.961548 1.91339 2.15546 0.719482 3.62821 0.719482H22.3717C23.8445 0.719482 25.0384 1.91339 25.0384 3.38615V15.7818C24.1628 15.4532 23.2143 15.2735 22.224 15.2735C17.7991 15.2735 14.212 18.8606 14.212 23.2854C14.212 24.7503 14.6052 26.1233 15.2916 27.3048H3.62821C2.15545 27.3048 0.961548 26.1109 0.961548 24.6381V3.38615ZM18.6359 10.7699C18.8092 10.7965 18.9948 10.8099 19.1925 10.8099C19.7592 10.8099 20.1814 10.7032 20.4592 10.4899C20.737 10.2743 20.8759 9.9521 20.8759 9.52321V9.46987C20.8759 9.20987 20.827 9.0021 20.7292 8.84654C20.6336 8.68876 20.4881 8.56098 20.2925 8.46321C20.0992 8.36321 19.8548 8.26987 19.5592 8.18321C19.3392 8.11876 19.1692 8.05876 19.0492 8.00321C18.9314 7.94765 18.8492 7.88987 18.8025 7.82987C18.7581 7.76987 18.7359 7.69987 18.7359 7.61987V7.60654C18.7359 7.52876 18.7559 7.46321 18.7959 7.40987C18.8359 7.35432 18.9048 7.31209 19.0025 7.28321C19.1025 7.25432 19.2392 7.23987 19.4125 7.23987C19.6592 7.23987 19.8903 7.26876 20.1059 7.32654C20.3236 7.38209 20.5181 7.45098 20.6892 7.53321L20.5992 6.63987C20.4436 6.56654 20.2536 6.50321 20.0292 6.44987C19.807 6.39654 19.5425 6.36987 19.2359 6.36987C18.7248 6.36987 18.337 6.4721 18.0725 6.67654C17.8103 6.88098 17.6792 7.17654 17.6792 7.56321V7.60654C17.6792 7.85765 17.7281 8.06543 17.8259 8.22987C17.9236 8.3921 18.0714 8.52765 18.2692 8.63654C18.4692 8.74543 18.7181 8.84432 19.0159 8.93321C19.2136 8.99098 19.3703 9.04543 19.4859 9.09654C19.6036 9.14543 19.687 9.19987 19.7359 9.25987C19.787 9.31765 19.8125 9.39321 19.8125 9.48654V9.50987C19.8125 9.64987 19.757 9.75321 19.6459 9.81987C19.537 9.88432 19.3525 9.91654 19.0925 9.91654C18.8236 9.91654 18.5692 9.88209 18.3292 9.81321C18.0892 9.74209 17.8814 9.66543 17.7059 9.58321L17.7959 10.5432C17.9025 10.5877 18.0259 10.631 18.1659 10.6732C18.3081 10.7132 18.4648 10.7454 18.6359 10.7699ZM5.30383 6.45987V10.7199H6.3405V9.23654H8.1105V8.35987H6.3405V7.33654H8.1605V6.45987H5.30383ZM10.2039 7.32987V10.7199H11.2472V7.32987H12.4206V6.45987H9.02722V7.32987H10.2039ZM14.4709 10.7199V9.50987H15.2375C15.7775 9.50987 16.1731 9.39098 16.4242 9.15321C16.6775 8.91321 16.8042 8.56876 16.8042 8.11987V7.84987C16.8042 7.40321 16.6775 7.05987 16.4242 6.81987C16.1731 6.57987 15.7764 6.45987 15.2342 6.45987H13.4442V10.7199H14.4709Z" fill="currentColor"/>
</svg>
