<svg width="32" height="32" viewBox="0 0 32 32" fill="none" xmlns="http://www.w3.org/2000/svg">
<g id="SmbList">
<g id="Subtract">
<path d="M23.2595 13.2215H22.1805V11.7482H23.3115C23.4878 11.7482 23.6423 11.7785 23.7752 11.8392C23.911 11.8969 24.0164 11.9807 24.0915 12.0905C24.1695 12.1974 24.2085 12.3259 24.2085 12.4762C24.2085 12.6871 24.1277 12.8647 23.9659 13.0092C23.807 13.1507 23.5715 13.2215 23.2595 13.2215Z" fill="currentColor"/>
<path d="M23.3115 10.5955H22.1805V9.20017H23.2422C23.4993 9.20017 23.7131 9.26228 23.8835 9.3865C24.054 9.51073 24.1392 9.68695 24.1392 9.91517C24.1392 10.0249 24.1175 10.1232 24.0742 10.2098C24.0309 10.2936 23.9716 10.3644 23.8965 10.4222C23.8214 10.4799 23.7348 10.5233 23.6365 10.5522C23.5383 10.5811 23.43 10.5955 23.3115 10.5955Z" fill="currentColor"/>
<path fill-rule="evenodd" clip-rule="evenodd" d="M6.6381 2.71924C5.16534 2.71924 3.97144 3.91315 3.97144 5.38591V26.6092C3.97144 28.082 5.16534 29.2759 6.6381 29.2759H25.3718C26.8446 29.2759 28.0385 28.082 28.0385 26.6092V5.38591C28.0385 3.91315 26.8446 2.71924 25.3718 2.71924H6.6381ZM9.34204 17.3345H12.0087V20.0011H9.34204V17.3345ZM12.0087 22.5643H9.34204V25.231H12.0087V22.5643ZM13.3383 17.3345H22.6508V20.0011H13.3383V17.3345ZM22.6508 22.5643H13.3383V25.231H22.6508V22.5643ZM8.99624 14.4305C8.67846 14.4305 8.36501 14.3915 8.0559 14.3135C7.74968 14.2326 7.46946 14.1127 7.21524 13.9538C6.96101 13.7921 6.75013 13.5898 6.58257 13.3472C6.4179 13.1045 6.32113 12.8199 6.29224 12.4935H7.80024C7.83779 12.6639 7.91001 12.8084 8.0169 12.9268C8.12379 13.0424 8.25957 13.1319 8.42424 13.1955C8.59179 13.2562 8.77957 13.2865 8.98757 13.2865C9.18979 13.2865 9.37757 13.2634 9.5509 13.2172C9.72424 13.1709 9.8629 13.0987 9.9669 13.0005C10.0738 12.9023 10.1272 12.7708 10.1272 12.6062C10.1272 12.4646 10.0781 12.3519 9.9799 12.2682C9.88457 12.1815 9.75746 12.1136 9.59857 12.0645C9.43968 12.0125 9.26779 11.9692 9.0829 11.9345L8.06024 11.7395C7.58357 11.6557 7.20224 11.4651 6.91624 11.1675C6.63024 10.8699 6.4829 10.4669 6.47424 9.9585C6.46846 9.55117 6.57679 9.20162 6.79924 8.90984C7.02457 8.61517 7.32646 8.38984 7.7049 8.23384C8.08335 8.07784 8.50368 7.99984 8.9659 7.99984C9.52057 7.99984 9.98857 8.08362 10.3699 8.25117C10.7541 8.41873 11.0459 8.64984 11.2452 8.9445C11.4446 9.23628 11.5471 9.56706 11.5529 9.93684H10.0839C10.0637 9.74617 10.0059 9.59306 9.91057 9.4775C9.81524 9.36195 9.68957 9.27961 9.53357 9.2305C9.38046 9.1785 9.20135 9.1525 8.99624 9.1525C8.82868 9.1525 8.68424 9.16984 8.5629 9.2045C8.44157 9.23628 8.34046 9.28106 8.25957 9.33884C8.17868 9.39662 8.11801 9.4645 8.07757 9.5425C8.04001 9.61762 8.02124 9.69706 8.02124 9.78084C8.02124 9.94262 8.07324 10.0741 8.17724 10.1752C8.28413 10.2734 8.48779 10.3543 8.78824 10.4178L9.80657 10.6085C10.2226 10.6836 10.5505 10.7992 10.7902 10.9552C11.03 11.1112 11.2091 11.2874 11.3276 11.4838C11.446 11.6774 11.5211 11.8724 11.5529 12.0688C11.5876 12.2653 11.6049 12.4444 11.6049 12.6062C11.6049 12.9499 11.4922 13.2605 11.2669 13.5378C11.0445 13.8152 10.7368 14.0333 10.3439 14.1922C9.9539 14.3511 9.50468 14.4305 8.99624 14.4305ZM12.6202 14.3438V8.07784H14.7955L16.0175 12.2205L17.2525 8.07784H19.4149V14.3438H17.9329V9.67684L16.5679 14.3438H15.4672L14.1022 9.68984V14.3438H12.6202ZM20.7029 8.07784V14.3438H23.2119C24.0959 14.3438 24.7329 14.2052 25.1229 13.9278C25.5129 13.6505 25.7079 13.2215 25.7079 12.6408C25.7079 12.5079 25.6949 12.3693 25.6689 12.2248C25.6429 12.0804 25.5894 11.9388 25.5085 11.8002C25.4305 11.6615 25.3106 11.5329 25.1489 11.4145C24.99 11.2961 24.7776 11.2007 24.5119 11.1285C24.9076 10.9465 25.1806 10.7428 25.3309 10.5175C25.484 10.2893 25.5605 10.0264 25.5605 9.72884C25.5605 9.19439 25.3612 8.78562 24.9625 8.5025C24.5639 8.21939 23.9399 8.07784 23.0905 8.07784H20.7029Z" fill="currentColor"/>
</g>
</g>
</svg>
