<svg width="32" height="32" viewBox="0 0 32 32" fill="none" xmlns="http://www.w3.org/2000/svg">
<g id="SftpUpload">
<g id="Vector">
<path d="M20.6666 24.6665L24.6666 20.6665L28.6666 24.6665H26V29.9998H23.3333V24.6665H20.6666Z" fill="currentColor"/>
<path d="M21.5409 10.6663H22.2309C22.4486 10.6663 22.6053 10.6185 22.7009 10.523C22.7986 10.4252 22.8475 10.2796 22.8475 10.0863V9.87963C22.8475 9.68407 22.7998 9.53852 22.7042 9.44296C22.6086 9.34741 22.452 9.29963 22.2342 9.29963H21.5409V10.6663Z" fill="currentColor"/>
<path fill-rule="evenodd" clip-rule="evenodd" d="M3.96155 5.38591C3.96155 3.91315 5.15546 2.71924 6.62821 2.71924H25.3717C26.8445 2.71924 28.0384 3.91315 28.0384 5.38591V17.7815C27.1628 17.453 26.2143 17.2733 25.224 17.2733C20.7991 17.2733 17.212 20.8603 17.212 25.2852C17.212 26.75 17.6052 28.1231 18.2916 29.3045H6.62821C5.15545 29.3045 3.96155 28.1106 3.96155 26.6379V5.38591ZM9.08024 12.7696C9.25358 12.7963 9.43913 12.8096 9.63691 12.8096C10.2036 12.8096 10.6258 12.703 10.9036 12.4896C11.1814 12.2741 11.3202 11.9519 11.3202 11.523V11.4696C11.3202 11.2096 11.2714 11.0019 11.1736 10.8463C11.078 10.6885 10.9325 10.5607 10.7369 10.463C10.5436 10.363 10.2991 10.2696 10.0036 10.183C9.78358 10.1185 9.61358 10.0585 9.49358 10.003C9.3758 9.94741 9.29358 9.88963 9.24691 9.82963C9.20246 9.76963 9.18024 9.69963 9.18024 9.61963V9.6063C9.18024 9.52852 9.20024 9.46296 9.24024 9.40963C9.28024 9.35407 9.34913 9.31185 9.44691 9.28296C9.54691 9.25407 9.68358 9.23963 9.85691 9.23963C10.1036 9.23963 10.3347 9.26852 10.5502 9.3263C10.768 9.38185 10.9625 9.45074 11.1336 9.53296L11.0436 8.63963C10.888 8.5663 10.698 8.50296 10.4736 8.44963C10.2514 8.3963 9.98691 8.36963 9.68024 8.36963C9.16913 8.36963 8.78135 8.47185 8.51691 8.6763C8.25469 8.88074 8.12358 9.1763 8.12358 9.56296V9.6063C8.12358 9.85741 8.17246 10.0652 8.27024 10.2296C8.36802 10.3919 8.5158 10.5274 8.71358 10.6363C8.91358 10.7452 9.16247 10.8441 9.46024 10.933C9.65802 10.9907 9.81469 11.0452 9.93024 11.0963C10.048 11.1452 10.1314 11.1996 10.1802 11.2596C10.2314 11.3174 10.2569 11.393 10.2569 11.4863V11.5096C10.2569 11.6496 10.2014 11.753 10.0902 11.8196C9.98135 11.8841 9.79691 11.9163 9.53691 11.9163C9.26802 11.9163 9.01358 11.8819 8.77358 11.813C8.53358 11.7419 8.3258 11.6652 8.15024 11.583L8.24024 12.543C8.34691 12.5874 8.47024 12.6307 8.61024 12.673C8.75247 12.713 8.90913 12.7452 9.08024 12.7696ZM12.3805 8.45963V12.7196H13.4172V11.2363H15.1872V10.3596H13.4172V9.3363H15.2372V8.45963H12.3805ZM17.2806 12.7196V9.32963H16.1039V8.45963H19.4972V9.32963H18.3239V12.7196H17.2806ZM21.5475 11.5096V12.7196H20.5209V8.45963H22.3109C22.8531 8.45963 23.2498 8.57963 23.5009 8.81963C23.7542 9.05963 23.8809 9.40296 23.8809 9.84963V10.1196C23.8809 10.5685 23.7542 10.913 23.5009 11.153C23.2498 11.3907 22.8542 11.5096 22.3142 11.5096H21.5475Z" fill="currentColor"/>
</g>
</g>
</svg>
