<?xml version="1.0" encoding="utf-8"?>
<svg viewBox="0 0 32 32" fill="none" xmlns="http://www.w3.org/2000/svg">
  <path d="M28.6666 25.9999L24.6666 29.9999L20.6666 25.9999H23.3333V20.6666H25.9999V25.9999H28.6666Z" style="fill: rgb(202, 197, 218);" transform="matrix(1, 0, 0, 1, 0, -4.440892098500626e-16)"/>
  <path d="M20.7232 10.6667H20.0332V9.30003H20.7266C20.9444 9.30003 21.101 9.34781 21.1966 9.44337C21.2921 9.53892 21.3399 9.68448 21.3399 9.88003V10.0867C21.3399 10.28 21.291 10.4256 21.1932 10.5234C21.0977 10.6189 20.941 10.6667 20.7232 10.6667Z" style="fill: rgb(202, 197, 218);" transform="matrix(1, 0, 0, 1, 0, -4.440892098500626e-16)"/>
  <path fill-rule="evenodd" clip-rule="evenodd" d="M27.9999 1.33325H9.33325C7.85325 1.33325 6.66658 2.51992 6.66658 3.99992V22.6666C6.66658 24.1466 7.86659 25.3333 9.33325 25.3333H17.122C17.1214 25.2931 17.1211 25.2528 17.1211 25.2125C17.1211 20.8206 20.6814 17.2603 25.0732 17.2603C27.2541 17.2603 29.2299 18.1382 30.6666 19.5599V3.99992C30.6666 2.51992 29.4666 1.33325 27.9999 1.33325ZM24.2049 12.77C24.3782 12.7967 24.5638 12.81 24.7616 12.81C25.3282 12.81 25.7505 12.7034 26.0282 12.49C26.306 12.2745 26.4449 11.9523 26.4449 11.5234V11.47C26.4449 11.21 26.396 11.0023 26.2982 10.8467C26.2027 10.6889 26.0571 10.5611 25.8616 10.4634C25.6682 10.3634 25.4238 10.27 25.1282 10.1834C24.9082 10.1189 24.7382 10.0589 24.6182 10.0034C24.5005 9.94781 24.4182 9.89003 24.3716 9.83003C24.3271 9.77003 24.3049 9.70004 24.3049 9.62004V9.6067C24.3049 9.52892 24.3249 9.46337 24.3649 9.41003C24.4049 9.35448 24.4738 9.31226 24.5716 9.28337C24.6716 9.25448 24.8082 9.24004 24.9816 9.24004C25.2282 9.24004 25.4594 9.26892 25.6749 9.3267C25.8927 9.38226 26.0871 9.45115 26.2582 9.53337L26.1682 8.64003C26.0127 8.5667 25.8227 8.50337 25.5982 8.45003C25.376 8.3967 25.1116 8.37004 24.8049 8.37004C24.2938 8.37004 23.906 8.47226 23.6416 8.6767C23.3794 8.88115 23.2482 9.1767 23.2482 9.56337V9.6067C23.2482 9.85781 23.2971 10.0656 23.3949 10.23C23.4927 10.3923 23.6405 10.5278 23.8382 10.6367C24.0382 10.7456 24.2871 10.8445 24.5849 10.9334C24.7827 10.9911 24.9394 11.0456 25.0549 11.0967C25.1727 11.1456 25.256 11.2 25.3049 11.26C25.356 11.3178 25.3816 11.3934 25.3816 11.4867V11.51C25.3816 11.65 25.326 11.7534 25.2149 11.82C25.106 11.8845 24.9216 11.9167 24.6616 11.9167C24.3927 11.9167 24.1382 11.8823 23.8982 11.8134C23.6582 11.7423 23.4505 11.6656 23.2749 11.5834L23.3649 12.5434C23.4716 12.5878 23.5949 12.6311 23.7349 12.6734C23.8771 12.7134 24.0338 12.7456 24.2049 12.77ZM10.8729 8.46003V12.72H11.9096V11.2367H13.6796V10.36H11.9096V9.3367H13.7295V8.46003H10.8729ZM15.7729 9.33003V12.72H16.8163V9.33003H17.9896V8.46003H14.5963V9.33003H15.7729ZM20.0399 12.72V11.51H20.8066C21.3466 11.51 21.7421 11.3911 21.9932 11.1534C22.2466 10.9134 22.3732 10.5689 22.3732 10.12V9.85003C22.3732 9.40337 22.2466 9.06004 21.9932 8.82003C21.7421 8.58003 21.3455 8.46003 20.8032 8.46003H19.0132V12.72H20.0399Z" style="fill: rgb(202, 197, 218);" transform="matrix(1, 0, 0, 1, 0, -4.440892098500626e-16)"/>
  <path d="M3.99992 6.66658V27.9999H14.6647V30.6666H3.99992C3.29267 30.6666 2.6144 30.3856 2.1143 29.8855C1.6142 29.3854 1.33325 28.7072 1.33325 27.9999V6.66658H3.99992Z" style="fill: rgb(202, 197, 218);" transform="matrix(1, 0, 0, 1, 0, -4.440892098500626e-16)"/>
</svg>
