<?xml version="1.0" encoding="utf-8"?>
<svg viewBox="0 0 30 30" fill="none" xmlns="http://www.w3.org/2000/svg">
  <path d="M20.0733 23.6666L24.0733 19.6666L28.0733 23.6666H25.4066V28.9999H22.7399V23.6666H20.0733Z" style="fill: rgb(202, 197, 218);"/>
  <path d="M19.7234 9.66638H19.0334V8.29971H19.7267C19.9445 8.29971 20.1011 8.34749 20.1967 8.44304C20.2923 8.5386 20.34 8.68415 20.34 8.87971V9.08638C20.34 9.27971 20.2911 9.42527 20.1934 9.52304C20.0978 9.6186 19.9411 9.66638 19.7234 9.66638Z" style="fill: rgb(202, 197, 218);"/>
  <path fill-rule="evenodd" clip-rule="evenodd" d="M27 0.333252H8.33337C6.85337 0.333252 5.66671 1.51992 5.66671 2.99992V21.6666C5.66671 23.1466 6.86671 24.3333 8.33337 24.3333H16.1221C16.1215 24.2931 16.1212 24.2528 16.1212 24.2125C16.1212 19.8206 19.6815 16.2603 24.0734 16.2603C26.2542 16.2603 28.2301 17.1382 29.6667 18.5599V2.99992C29.6667 1.51992 28.4667 0.333252 27 0.333252ZM23.205 11.7697C23.3784 11.7964 23.5639 11.8097 23.7617 11.8097C24.3284 11.8097 24.7506 11.703 25.0284 11.4897C25.3061 11.2742 25.445 10.9519 25.445 10.523V10.4697C25.445 10.2097 25.3961 10.0019 25.2984 9.84638C25.2028 9.6886 25.0573 9.56082 24.8617 9.46304C24.6684 9.36304 24.4239 9.26971 24.1284 9.18304C23.9084 9.1186 23.7384 9.0586 23.6184 9.00304C23.5006 8.94749 23.4184 8.88971 23.3717 8.82971C23.3273 8.76971 23.305 8.69971 23.305 8.61971V8.60638C23.305 8.5286 23.325 8.46304 23.365 8.40971C23.405 8.35415 23.4739 8.31193 23.5717 8.28304C23.6717 8.25415 23.8084 8.23971 23.9817 8.23971C24.2284 8.23971 24.4595 8.2686 24.675 8.32638C24.8928 8.38193 25.0873 8.45082 25.2584 8.53304L25.1684 7.63971C25.0128 7.56638 24.8228 7.50304 24.5984 7.44971C24.3761 7.39638 24.1117 7.36971 23.805 7.36971C23.2939 7.36971 22.9061 7.47193 22.6417 7.67638C22.3795 7.88082 22.2484 8.17638 22.2484 8.56304V8.60638C22.2484 8.85749 22.2973 9.06526 22.395 9.22971C22.4928 9.39193 22.6406 9.52749 22.8384 9.63638C23.0384 9.74527 23.2873 9.84415 23.585 9.93304C23.7828 9.99082 23.9395 10.0453 24.055 10.0964C24.1728 10.1453 24.2561 10.1997 24.305 10.2597C24.3561 10.3175 24.3817 10.393 24.3817 10.4864V10.5097C24.3817 10.6497 24.3261 10.753 24.215 10.8197C24.1061 10.8842 23.9217 10.9164 23.6617 10.9164C23.3928 10.9164 23.1384 10.8819 22.8984 10.813C22.6584 10.7419 22.4506 10.6653 22.275 10.583L22.365 11.543C22.4717 11.5875 22.595 11.6308 22.735 11.673C22.8773 11.713 23.0339 11.7453 23.205 11.7697ZM9.87301 7.45971V11.7197H10.9097V10.2364H12.6797V9.35971H10.9097V8.33638H12.7297V7.45971H9.87301ZM14.7731 8.32971V11.7197H15.8164V8.32971H16.9897V7.45971H13.5964V8.32971H14.7731ZM19.04 11.7197V10.5097H19.8067C20.3467 10.5097 20.7423 10.3908 20.9934 10.153C21.2467 9.91304 21.3734 9.5686 21.3734 9.11971V8.84971C21.3734 8.40304 21.2467 8.05971 20.9934 7.81971C20.7423 7.57971 20.3456 7.45971 19.8034 7.45971H18.0134V11.7197H19.04Z" style="fill: rgb(202, 197, 218);"/>
  <path d="M3.00004 5.66658V26.9999H13.6695V29.6666H3.00004C2.2928 29.6666 1.61452 29.3856 1.11442 28.8855C0.614326 28.3854 0.333374 27.7072 0.333374 26.9999V5.66658H3.00004Z" style="fill: rgb(202, 197, 218);"/>
</svg>
