<?xml version="1.0" encoding="utf-8"?>
<svg viewBox="0 0 32 32" fill="none" xmlns="http://www.w3.org/2000/svg">
  <g id="FtpUpload" transform="matrix(1, 0, 0, 1, 0, -4.440892098500626e-16)">
    <g id="Vector">
      <path d="M20.6666 24.6665L24.6666 20.6665L28.6666 24.6665H26V29.9998H23.3333V24.6665H20.6666Z" style="fill: rgb(202, 197, 218);"/>
      <path d="M20.915 11.1784H21.881C22.1859 11.1784 22.4052 11.1115 22.539 10.9777C22.6759 10.8408 22.7443 10.637 22.7443 10.3664V10.077C22.7443 9.80325 22.6774 9.59947 22.5436 9.4657C22.4099 9.33192 22.1905 9.26503 21.8856 9.26503H20.915V11.1784Z" style="fill: rgb(202, 197, 218);"/>
      <path fill-rule="evenodd" clip-rule="evenodd" d="M3.96155 5.38591C3.96155 3.91315 5.15546 2.71924 6.62821 2.71924H25.3717C26.8445 2.71924 28.0384 3.91315 28.0384 5.38591V17.7815C27.1628 17.453 26.2143 17.2733 25.224 17.2733C20.7991 17.2733 17.212 20.8603 17.212 25.2852C17.212 26.75 17.6052 28.1231 18.2916 29.3045H6.62821C5.15545 29.3045 3.96155 28.1106 3.96155 26.6379V5.38591ZM8.08134 14.053V8.08903H12.0807V9.31636H9.53267V10.749H12.0107V11.9764H9.53267V14.053H8.08134ZM14.9505 14.053V9.30703H13.3032V8.08903H18.0539V9.30703H16.4112V14.053H14.9505ZM20.9243 12.359V14.053H19.487V8.08903H21.993C22.7521 8.08903 23.3074 8.25703 23.659 8.59303C24.0136 8.92903 24.191 9.4097 24.191 10.035V10.413C24.191 11.0415 24.0136 11.5237 23.659 11.8597C23.3074 12.1926 22.7536 12.359 21.9976 12.359H20.9243Z" style="fill: rgb(202, 197, 218);"/>
    </g>
  </g>
</svg>
