<svg width="32" height="32" viewBox="0 0 32 32" fill="none" xmlns="http://www.w3.org/2000/svg">
    <path d="M26.6666 25.3333V9.33333H5.33329V25.3333H26.6666ZM26.6666 4C27.3739 4 28.0521 4.28095 28.5522 4.78105C29.0523 5.28115 29.3333 5.95942 29.3333 6.66667V25.3333C29.3333 26.0406 29.0523 26.7189 28.5522 27.219C28.0521 27.719 27.3739 28 26.6666 28H5.33329C4.62605 28 3.94777 27.719 3.44767 27.219C2.94758 26.7189 2.66663 26.0406 2.66663 25.3333V6.66667C2.66663 5.18667 3.86663 4 5.33329 4H26.6666ZM17.3333 22.6667V20H24V22.6667H17.3333ZM12.7733 17.3333L7.42663 12H11.2L15.6 16.4C16.12 16.92 16.12 17.7733 15.6 18.2933L11.2266 22.6667H7.45329L12.7733 17.3333Z" fill="currentColor"/>
</svg>
