<?xml version="1.0" encoding="utf-8"?>
<svg viewBox="0 0 24 24" fill="none" xmlns="http://www.w3.org/2000/svg">
  <path d="M14.1826 11.7578H13.4581V10.3228H14.1861C14.4148 10.3228 14.5793 10.3729 14.6796 10.4733C14.78 10.5736 14.8301 10.7264 14.8301 10.9318V11.1488C14.8301 11.3518 14.7788 11.5046 14.6761 11.6073C14.5758 11.7076 14.4113 11.7578 14.1826 11.7578Z" style="fill: rgb(202, 197, 218);" transform="matrix(0.9999999999999999, 0, 0, 0.9999999999999999, 0, 0)"/>
  <path fill-rule="evenodd" clip-rule="evenodd" d="M4.97852 2.03955C3.87395 2.03955 2.97852 2.93498 2.97852 4.03955V19.957C2.97852 21.0616 3.87395 21.957 4.97852 21.957H19.0288C20.1334 21.957 21.0288 21.0616 21.0288 19.957V4.03955C21.0288 2.93498 20.1334 2.03955 19.0288 2.03955H4.97852ZM17.3484 13.9663C17.5304 13.9943 17.7252 14.0083 17.9329 14.0083C18.5279 14.0083 18.9712 13.8963 19.2629 13.6723C19.5546 13.4459 19.7004 13.1076 19.7004 12.6573V12.6013C19.7004 12.3283 19.6491 12.1101 19.5464 11.9468C19.4461 11.7811 19.2932 11.6469 19.0879 11.5443C18.8849 11.4393 18.6282 11.3413 18.3179 11.2503C18.0869 11.1826 17.9084 11.1196 17.7824 11.0613C17.6587 11.0029 17.5724 10.9423 17.5234 10.8793C17.4767 10.8163 17.4534 10.7428 17.4534 10.6588V10.6448C17.4534 10.5631 17.4744 10.4943 17.5164 10.4383C17.5584 10.3799 17.6307 10.3356 17.7334 10.3053C17.8384 10.2749 17.9819 10.2598 18.1639 10.2598C18.4229 10.2598 18.6656 10.2901 18.8919 10.3508C19.1206 10.4091 19.3247 10.4814 19.5044 10.5678L19.4099 9.62976C19.2466 9.55276 19.0471 9.48626 18.8114 9.43026C18.5781 9.37426 18.3004 9.34626 17.9784 9.34626C17.4417 9.34626 17.0346 9.45359 16.7569 9.66826C16.4816 9.88293 16.3439 10.1933 16.3439 10.5993V10.6448C16.3439 10.9084 16.3952 11.1266 16.4979 11.2993C16.6006 11.4696 16.7557 11.6119 16.9634 11.7263C17.1734 11.8406 17.4347 11.9444 17.7474 12.0378C17.9551 12.0984 18.1196 12.1556 18.2409 12.2093C18.3646 12.2606 18.4521 12.3178 18.5034 12.3808C18.5571 12.4414 18.5839 12.5208 18.5839 12.6188V12.6433C18.5839 12.7903 18.5256 12.8988 18.4089 12.9688C18.2946 13.0364 18.1009 13.0703 17.8279 13.0703C17.5456 13.0703 17.2784 13.0341 17.0264 12.9618C16.7744 12.8871 16.5562 12.8066 16.3719 12.7203L16.4664 13.7283C16.5784 13.7749 16.7079 13.8204 16.8549 13.8648C17.0042 13.9068 17.1687 13.9406 17.3484 13.9663ZM4.81293 9.44076V13.9138H5.90143V12.3563H7.75993V11.4358H5.90143V10.3613H7.81243V9.44076H4.81293ZM9.47482 10.3543V13.9138H10.5703V10.3543H11.8023V9.44076H8.23932V10.3543H9.47482ZM13.4651 13.9138V12.6433H14.2701C14.8371 12.6433 15.2525 12.5184 15.5161 12.2688C15.7821 12.0168 15.9151 11.6551 15.9151 11.1838V10.9003C15.9151 10.4313 15.7821 10.0708 15.5161 9.81876C15.2525 9.56676 14.836 9.44076 14.2666 9.44076H12.3871V13.9138H13.4651Z" style="fill: rgb(202, 197, 218);" transform="matrix(0.9999999999999999, 0, 0, 0.9999999999999999, 0, 0)"/>
</svg>
