<?xml version="1.0" encoding="utf-8"?>
<svg version="1.1" id="Calque_1" xmlns="http://www.w3.org/2000/svg" xmlns:xlink="http://www.w3.org/1999/xlink" x="0px" y="0px"
     viewBox="0 0 24 24" style="enable-background:new 0 0 24 24;" xml:space="preserve">
<style type="text/css">
	.st0{fill:none;}
	.st1{fill:#0F1724;}
</style>
    <g>
	<rect x="9" y="4" class="st0" width="1" height="2"/>
        <rect x="5" y="4" class="st0" width="2" height="2"/>
        <path class="st1" d="M4,8h16c0.6,0,1-0.4,1-1V3c0-0.6-0.4-1-1-1H4C3.4,2,3,2.4,3,3v4C3,7.6,3.4,8,4,8z M9,4h1v2H9V4z M5,4h2v2H5V4z
		"/>
        <path class="st1" d="M16.3,13c0.1,0,0.2-0.1,0.3-0.1s0.2-0.1,0.2-0.2c0-0.1,0.1-0.2,0.1-0.3c0-0.1,0-0.2-0.1-0.3s-0.1-0.2-0.2-0.2
		c-0.1-0.1-0.2-0.1-0.3-0.1c-0.1,0-0.2,0-0.4,0c-0.2,0-0.4,0-0.5,0V13h0.4C16,13,16.2,13,16.3,13z"/>
        <path class="st1" d="M15,19c0-0.6-0.4-1-1-1h-1v-2h7c0.6,0,1-0.4,1-1v-4c0-0.6-0.4-1-1-1H4c-0.6,0-1,0.4-1,1v4c0,0.6,0.4,1,1,1h7v2
		h-1c-0.6,0-1,0.4-1,1H2v2h7c0,0.6,0.4,1,1,1h4c0.6,0,1-0.4,1-1h7v-2H15z M15,11.3c0.1,0,0.3-0.1,0.5-0.1c0.2,0,0.3,0,0.5,0
		c0.5,0,0.9,0.1,1.1,0.3s0.4,0.5,0.4,0.8c0,0.2,0,0.4-0.1,0.5c-0.1,0.1-0.2,0.3-0.3,0.3c-0.1,0.1-0.3,0.2-0.5,0.2s-0.4,0.1-0.7,0.1
		h-0.4v1.3H15V11.3z M8.5,14.5c-0.2,0.2-0.5,0.2-0.9,0.2c-0.1,0-0.3,0-0.4,0c-0.1,0-0.2,0-0.3-0.1c-0.1,0-0.2-0.1-0.2-0.1
		s-0.1-0.1-0.2-0.1l0.1-0.4c0.1,0,0.2,0.1,0.4,0.1c0.2,0.1,0.3,0.1,0.6,0.1c0.5,0,0.8-0.2,0.8-0.5c0-0.1,0-0.2-0.1-0.3
		c0-0.1-0.1-0.1-0.2-0.2c-0.1-0.1-0.2-0.1-0.3-0.1s-0.2-0.1-0.3-0.1c-0.1,0-0.2-0.1-0.4-0.1c-0.1-0.1-0.2-0.1-0.3-0.2
		c-0.1-0.1-0.1-0.2-0.2-0.3c0-0.1-0.1-0.2-0.1-0.4c0-0.3,0.1-0.5,0.3-0.7c0.2-0.2,0.5-0.3,0.9-0.3c0.2,0,0.4,0,0.6,0.1
		s0.3,0.1,0.4,0.1l-0.2,0.4c-0.1,0-0.2-0.1-0.3-0.1c-0.1,0-0.3-0.1-0.5-0.1c-0.1,0-0.2,0-0.3,0s-0.1,0.1-0.2,0.1s-0.1,0.1-0.1,0.2
		c0,0.1-0.1,0.1-0.1,0.2c0,0.1,0,0.2,0.1,0.2c0,0.1,0.1,0.1,0.2,0.2c0.1,0,0.1,0.1,0.2,0.1c0.1,0,0.2,0.1,0.3,0.1
		c0.1,0.1,0.3,0.1,0.4,0.2C8.4,13,8.5,13,8.6,13.1c0.1,0.1,0.2,0.2,0.2,0.3c0,0.1,0.1,0.3,0.1,0.4C8.8,14.1,8.7,14.4,8.5,14.5z
		 M11.5,11.7H9.9v1h1.4v0.4H9.9v1.6H9.4v-3.5h2.1V11.7z M11.8,11.7v-0.4h2.7v0.4h-1.1v3h-0.5v-3H11.8z"/>
</g>
</svg>
