<?xml version="1.0" encoding="UTF-8"?>
<svg width="700pt" height="700pt" version="1.1" viewBox="0 0 700 700" xmlns="http://www.w3.org/2000/svg">
 <g>
  <path d="m542.5 35h-385c-13.926 0-27.277 5.5312-37.125 15.375-9.8438 9.8477-15.375 23.199-15.375 37.125v87.5h490v-87.5c0-13.926-5.5312-27.277-15.375-37.125-9.8477-9.8438-23.199-15.375-37.125-15.375zm-350 87.5h-17.5c-6.2539 0-12.031-3.3359-15.156-8.75s-3.125-12.086 0-17.5 8.9023-8.75 15.156-8.75h17.5c6.2539 0 12.031 3.3359 15.156 8.75s3.125 12.086 0 17.5-8.9023 8.75-15.156 8.75zm87.5 0h-17.5c-6.2539 0-12.031-3.3359-15.156-8.75s-3.125-12.086 0-17.5 8.9023-8.75 15.156-8.75h17.5c6.2539 0 12.031 3.3359 15.156 8.75s3.125 12.086 0 17.5-8.9023 8.75-15.156 8.75z"/>
  <path d="m105 472.5c0 13.926 5.5312 27.277 15.375 37.125 9.8477 9.8438 23.199 15.375 37.125 15.375h385c13.926 0 27.277-5.5312 37.125-15.375 9.8438-9.8477 15.375-23.199 15.375-37.125v-262.5h-490zm262.5-70h70c6.2539 0 12.031 3.3359 15.156 8.75s3.125 12.086 0 17.5-8.9023 8.75-15.156 8.75h-70c-6.2539 0-12.031-3.3359-15.156-8.75s-3.125-12.086 0-17.5 8.9023-8.75 15.156-8.75zm-117.37-75.129c-4.293-4.4453-5.9258-10.824-4.293-16.785 1.6367-5.957 6.293-10.613 12.25-12.25 5.9609-1.6328 12.34 0 16.785 4.293l52.5 52.5c3.2812 3.2812 5.125 7.7305 5.125 12.371s-1.8438 9.0898-5.125 12.371l-52.5 52.5c-4.4453 4.293-10.824 5.9258-16.785 4.293-5.957-1.6367-10.613-6.293-12.25-12.25-1.6328-5.9609 0-12.34 4.293-16.785l40.125-40.129z"/>
 </g>
</svg>
