<svg width="24" height="24" viewBox="0 0 24 24" fill="none" xmlns="http://www.w3.org/2000/svg">
<g id="Smb">
<g id="Subtract">
<path d="M17.4446 13.415H16.6353V12.31H17.4836C17.6158 12.31 17.7317 12.3328 17.8313 12.3783C17.9332 12.4216 18.0123 12.4844 18.0686 12.5668C18.1271 12.6469 18.1563 12.7433 18.1563 12.856C18.1563 13.0142 18.0957 13.1474 17.9743 13.2558C17.8552 13.3619 17.6786 13.415 17.4446 13.415Z" fill="currentColor"/>
<path d="M17.4836 11.4455H16.6353V10.399H17.4316C17.6244 10.399 17.7848 10.4456 17.9126 10.5388C18.0404 10.6319 18.1043 10.7641 18.1043 10.9353C18.1043 11.0176 18.0881 11.0913 18.0556 11.1563C18.0231 11.2191 17.9787 11.2722 17.9223 11.3155C17.866 11.3588 17.801 11.3913 17.7273 11.413C17.6537 11.4347 17.5724 11.4455 17.4836 11.4455Z" fill="currentColor"/>
<path fill-rule="evenodd" clip-rule="evenodd" d="M4.97852 2.03955C3.87395 2.03955 2.97852 2.93498 2.97852 4.03955V19.957C2.97852 21.0616 3.87395 21.957 4.97852 21.957H19.0288C20.1334 21.957 21.0288 21.0616 21.0288 19.957V4.03955C21.0288 2.93498 20.1334 2.03955 19.0288 2.03955H4.97852ZM6.74712 14.3218C6.50878 14.3218 6.2737 14.2925 6.04187 14.234C5.8122 14.1733 5.60203 14.0834 5.41137 13.9643C5.2207 13.8429 5.06253 13.6913 4.93687 13.5093C4.81337 13.3273 4.74078 13.1138 4.71912 12.869H5.85012C5.87828 12.9968 5.93245 13.1052 6.01262 13.194C6.09278 13.2807 6.19462 13.3478 6.31812 13.3955C6.44378 13.441 6.58462 13.4638 6.74062 13.4638C6.89228 13.4638 7.03312 13.4464 7.16312 13.4118C7.29312 13.3771 7.39712 13.3229 7.47512 13.2493C7.55528 13.1756 7.59537 13.077 7.59537 12.9535C7.59537 12.8473 7.55853 12.7628 7.48487 12.7C7.41337 12.635 7.31803 12.5841 7.19887 12.5473C7.0797 12.5083 6.95078 12.4758 6.81212 12.4498L6.04512 12.3035C5.68762 12.2407 5.40162 12.0977 5.18712 11.8745C4.97262 11.6513 4.86212 11.3491 4.85562 10.9678C4.85128 10.6623 4.93253 10.4001 5.09937 10.1813C5.26837 9.96025 5.49478 9.79125 5.77862 9.67425C6.06245 9.55725 6.3777 9.49875 6.72437 9.49875C7.14037 9.49875 7.49137 9.56158 7.77737 9.68725C8.06553 9.81292 8.28437 9.98625 8.43387 10.2073C8.58337 10.4261 8.66028 10.6742 8.66462 10.9515H7.56287C7.5477 10.8085 7.50437 10.6937 7.43287 10.607C7.36137 10.5203 7.26712 10.4586 7.15012 10.4218C7.03528 10.3828 6.90095 10.3633 6.74712 10.3633C6.62145 10.3633 6.51312 10.3763 6.42212 10.4023C6.33112 10.4261 6.25528 10.4597 6.19462 10.503C6.13395 10.5463 6.08845 10.5973 6.05812 10.6558C6.02995 10.7121 6.01587 10.7717 6.01587 10.8345C6.01587 10.9558 6.05487 11.0544 6.13287 11.1303C6.21303 11.2039 6.36578 11.2646 6.59112 11.3123L7.35487 11.4553C7.66687 11.5116 7.91278 11.5983 8.09262 11.7153C8.27245 11.8323 8.40678 11.9644 8.49562 12.1118C8.58445 12.2569 8.64078 12.4032 8.66462 12.5505C8.69062 12.6978 8.70362 12.8322 8.70362 12.9535C8.70362 13.2113 8.61912 13.4443 8.45012 13.6523C8.28328 13.8603 8.05253 14.0238 7.75787 14.143C7.46537 14.2622 7.12845 14.3218 6.74712 14.3218ZM9.46508 14.2568V9.55725H11.0966L12.0131 12.6643L12.9393 9.55725H14.5611V14.2568H13.4496V10.7565L12.4258 14.2568H11.6003L10.5766 10.7663V14.2568H9.46508ZM15.5271 9.55725V14.2568H17.4088C18.0718 14.2568 18.5496 14.1528 18.8421 13.9448C19.1346 13.7368 19.2808 13.415 19.2808 12.9795C19.2808 12.8798 19.2711 12.7758 19.2516 12.6675C19.2321 12.5592 19.192 12.453 19.1313 12.349C19.0728 12.245 18.9829 12.1486 18.8616 12.0598C18.7424 11.9709 18.5832 11.8994 18.3838 11.8453C18.6807 11.7088 18.8854 11.556 18.9981 11.387C19.1129 11.2158 19.1703 11.0187 19.1703 10.7955C19.1703 10.3947 19.0208 10.0881 18.7218 9.87575C18.4228 9.66342 17.9548 9.55725 17.3178 9.55725H15.5271Z" fill="currentColor"/>
</g>
</g>
</svg>
