<svg width="28" height="29" viewBox="0 0 28 29" fill="none" xmlns="http://www.w3.org/2000/svg">
    <path d="M14.389 8.14483H13.701V6.72883H14.389C14.6264 6.72883 14.7957 6.77816 14.897 6.87683C15.001 6.97283 15.053 7.12616 15.053 7.33683V7.54083C15.053 7.75149 15.001 7.90483 14.897 8.00083C14.7957 8.09683 14.6264 8.14483 14.389 8.14483Z" fill="currentColor"/>
    <path fill-rule="evenodd" clip-rule="evenodd" d="M21.3333 0.680176H2.66667C1.18667 0.680176 0 1.99467 0 3.6341V24.3116C0 25.095 0.280952 25.8463 0.781048 26.4003C1.28115 26.9543 1.95942 27.2655 2.66667 27.2655H12.9277C12.6166 26.6294 12.442 25.9143 12.442 25.1585C12.442 22.809 14.1292 20.8536 16.3581 20.4378C16.2198 19.9898 16.1454 19.5137 16.1454 19.0203C16.1454 16.3681 18.2955 14.218 20.9477 14.218C22.1069 14.218 23.1702 14.6288 24 15.3126V3.6341C24 1.99467 22.8 0.680176 21.3333 0.680176ZM18.2728 10.7528C18.4808 10.7822 18.7021 10.7968 18.9368 10.7968C19.6461 10.7968 20.1728 10.6648 20.5168 10.4008C20.8608 10.1342 21.0328 9.73549 21.0328 9.20483V9.14883C21.0328 8.82883 20.9728 8.57549 20.8528 8.38883C20.7328 8.19949 20.5541 8.04483 20.3168 7.92483C20.0821 7.80483 19.7915 7.69016 19.4448 7.58083C19.2021 7.50349 19.0155 7.43549 18.8848 7.37683C18.7541 7.31816 18.6635 7.26083 18.6128 7.20483C18.5648 7.14616 18.5408 7.07949 18.5408 7.00483V6.99283C18.5408 6.92083 18.5608 6.86083 18.6008 6.81283C18.6408 6.76216 18.7128 6.72483 18.8168 6.70082C18.9235 6.67416 19.0715 6.66083 19.2608 6.66083C19.5488 6.66083 19.8235 6.69283 20.0848 6.75683C20.3461 6.81816 20.5835 6.89683 20.7968 6.99283L20.6728 5.76883C20.4755 5.68083 20.2408 5.60616 19.9688 5.54483C19.6995 5.48349 19.3795 5.45283 19.0088 5.45283C18.3768 5.45283 17.8955 5.57949 17.5648 5.83283C17.2368 6.08349 17.0728 6.44749 17.0728 6.92483V6.98483C17.0728 7.29416 17.1341 7.54883 17.2568 7.74883C17.3795 7.94616 17.5608 8.11149 17.8008 8.24483C18.0408 8.37549 18.3355 8.49683 18.6848 8.60883C18.9008 8.67816 19.0728 8.73949 19.2008 8.79283C19.3288 8.84349 19.4195 8.89816 19.4728 8.95683C19.5288 9.01283 19.5568 9.08483 19.5568 9.17283V9.18883C19.5568 9.31949 19.4995 9.41416 19.3848 9.47283C19.2728 9.53149 19.0741 9.56083 18.7888 9.56083C18.4688 9.56083 18.1635 9.52083 17.8728 9.44083C17.5821 9.35816 17.3301 9.27149 17.1168 9.18083L17.2408 10.4928C17.3741 10.5435 17.5275 10.5928 17.7008 10.6408C17.8741 10.6862 18.0648 10.7235 18.2728 10.7528ZM3.16817 5.56882V10.6808H4.60817V9.02083H6.65617V7.80483H4.60817V6.78882H6.72017V5.56882H3.16817ZM8.69874 6.77283V10.6808H10.1507V6.77283H11.5187V5.56882H7.32673V6.77283H8.69874ZM13.709 10.6808V9.30883H14.525C15.197 9.30883 15.6917 9.16349 16.009 8.87283C16.3264 8.57949 16.485 8.15149 16.485 7.58883V7.29283C16.485 6.73283 16.3264 6.30616 16.009 6.01283C15.6917 5.71682 15.1944 5.56882 14.517 5.56882H12.285V10.6808H13.709Z" fill="currentColor"/>
    <path d="M19.6511 26.8793C18.6772 28.26 16.7762 28.6068 15.4022 27.6463C14.0348 26.6858 13.7146 24.7715 14.6751 23.3774C15.2554 22.5437 16.1492 22.0968 17.063 22.0567L17.0964 23.0106C16.4894 23.0573 15.9024 23.3708 15.5222 23.9177C14.8552 24.8782 15.062 26.1722 15.9758 26.8192C16.8963 27.4596 18.1836 27.2128 18.8506 26.2589C19.0574 25.9588 19.1775 25.6319 19.2242 25.2984V24.6247L22.9461 24.5981L22.9928 24.5247C23.3463 23.911 24.1134 23.6976 24.7137 24.0444C25.314 24.3913 25.5208 25.165 25.1673 25.7787C24.8138 26.3857 24.04 26.5991 23.4397 26.2523C23.1662 26.0988 22.9728 25.8521 22.8861 25.5719L20.1713 25.5852C20.098 26.0321 19.9245 26.4657 19.6511 26.8793ZM24.5069 22.1168C26.1945 22.3235 27.3951 23.8377 27.1883 25.4985C26.9816 27.1661 25.4474 28.3467 23.7599 28.1399C22.766 28.0199 21.9456 27.4529 21.472 26.6658L22.2991 26.1856C22.626 26.6992 23.1796 27.066 23.8466 27.1527C25.0139 27.2928 26.0477 26.4991 26.1878 25.3851C26.3279 24.2712 25.5008 23.2507 24.3469 23.1106C23.9867 23.0706 23.6398 23.1173 23.3263 23.2307L22.7594 23.5242L21.0385 20.3425H20.8917C20.1847 20.3158 19.6377 19.7355 19.6577 19.0418C19.6777 18.3481 20.2781 17.8078 20.9784 17.8345C21.6788 17.8745 22.2324 18.4415 22.2124 19.1352C22.1991 19.4287 22.0857 19.6955 21.9056 19.9023L23.1729 22.2435C23.5865 22.1101 24.04 22.0634 24.5069 22.1168ZM18.177 20.3025C17.5099 18.735 18.217 16.9407 19.7578 16.287C21.3053 15.6334 23.0929 16.3738 23.7599 17.9412C24.1534 18.8551 24.0734 19.8556 23.6265 20.656L22.7994 20.1757C23.0795 19.6355 23.1262 18.9751 22.8594 18.3548C22.4058 17.2876 21.1985 16.774 20.1647 17.2075C19.1241 17.6478 18.6572 18.8751 19.1108 19.9423C19.2975 20.3825 19.611 20.7227 19.9912 20.9495L20.2514 21.0896L18.2036 24.418C18.2236 24.4513 18.2503 24.4913 18.2703 24.5447C18.5972 25.1517 18.3704 25.9188 17.7567 26.2456C17.1497 26.5724 16.3827 26.3323 16.0492 25.7053C15.7223 25.085 15.9491 24.3179 16.5628 23.9911C16.8229 23.851 17.1097 23.8177 17.3832 23.8777L18.924 21.363C18.6105 21.0762 18.3437 20.716 18.177 20.3025Z" fill="currentColor"/>
</svg>
