<svg width="32" height="33" viewBox="0 0 32 33" fill="none" xmlns="http://www.w3.org/2000/svg">
<g id="SftpTriggers">
<g id="Vector">
<path d="M22.2517 11.1077H22.9397C23.177 11.1077 23.3464 11.0597 23.4477 10.9637C23.5517 10.8677 23.6037 10.7144 23.6037 10.5037V10.2997C23.6037 10.0891 23.5517 9.93572 23.4477 9.83972C23.3464 9.74106 23.177 9.69172 22.9397 9.69172H22.2517V11.1077Z" fill="currentColor"/>
<path fill-rule="evenodd" clip-rule="evenodd" d="M25.3333 3.64307H6.66667C5.18667 3.64307 4 4.95756 4 6.59699V27.2745C4 28.0579 4.28095 28.8092 4.78105 29.3632C5.28115 29.9172 5.95942 30.2284 6.66667 30.2284H16.9277C16.6166 29.5923 16.442 28.8772 16.442 28.1214C16.442 25.7719 18.1292 23.8165 20.3581 23.4007C20.2198 22.9527 20.1454 22.4766 20.1454 21.9832C20.1454 19.331 22.2955 17.1809 24.9477 17.1809C26.1069 17.1809 27.1702 17.5917 28 18.2755V6.59699C28 4.95756 26.8 3.64307 25.3333 3.64307ZM8.16781 13.7157C8.37581 13.7451 8.59715 13.7597 8.83181 13.7597C9.54115 13.7597 10.0678 13.6277 10.4118 13.3637C10.7558 13.0971 10.9278 12.6984 10.9278 12.1677V12.1117C10.9278 11.7917 10.8678 11.5384 10.7478 11.3517C10.6278 11.1624 10.4491 11.0077 10.2118 10.8877C9.97715 10.7677 9.68648 10.6531 9.33981 10.5437C9.09715 10.4664 8.91048 10.3984 8.77981 10.3397C8.64915 10.2811 8.55848 10.2237 8.50781 10.1677C8.45981 10.1091 8.43581 10.0424 8.43581 9.96772V9.95572C8.43581 9.88372 8.45581 9.82372 8.49581 9.77572C8.53581 9.72505 8.60781 9.68772 8.71181 9.66372C8.81848 9.63705 8.96648 9.62372 9.15581 9.62372C9.44381 9.62372 9.71848 9.65572 9.97981 9.71972C10.2411 9.78105 10.4785 9.85972 10.6918 9.95572L10.5678 8.73172C10.3705 8.64372 10.1358 8.56905 9.86381 8.50772C9.59448 8.44639 9.27448 8.41572 8.90381 8.41572C8.27181 8.41572 7.79048 8.54239 7.45981 8.79572C7.13181 9.04639 6.96781 9.41039 6.96781 9.88772V9.94772C6.96781 10.2571 7.02915 10.5117 7.15181 10.7117C7.27448 10.9091 7.45581 11.0744 7.69581 11.2077C7.93581 11.3384 8.23048 11.4597 8.57981 11.5717C8.79581 11.6411 8.96781 11.7024 9.09581 11.7557C9.22381 11.8064 9.31448 11.8611 9.36781 11.9197C9.42381 11.9757 9.45181 12.0477 9.45181 12.1357V12.1517C9.45181 12.2824 9.39448 12.3771 9.27981 12.4357C9.16781 12.4944 8.96915 12.5237 8.68381 12.5237C8.36381 12.5237 8.05848 12.4837 7.76781 12.4037C7.47715 12.3211 7.22515 12.2344 7.01181 12.1437L7.13581 13.4557C7.26915 13.5064 7.42248 13.5557 7.59581 13.6037C7.76915 13.6491 7.95981 13.6864 8.16781 13.7157ZM11.7188 8.53172V13.6437H13.1588V11.9837H15.2068V10.7677H13.1588V9.75172H15.2708V8.53172H11.7188ZM17.2494 13.6437V9.73572H15.8774V8.53172H20.0694V9.73572H18.7014V13.6437H17.2494ZM22.2597 12.2717V13.6437H20.8357V8.53172H23.0677C23.745 8.53172 24.2424 8.67972 24.5597 8.97572C24.877 9.26905 25.0357 9.69572 25.0357 10.2557V10.5517C25.0357 11.1144 24.877 11.5424 24.5597 11.8357C24.2424 12.1264 23.7477 12.2717 23.0757 12.2717H22.2597Z" fill="currentColor"/>
<path d="M23.6511 29.8421C22.6772 31.2229 20.7762 31.5697 19.4022 30.6092C18.0348 29.6487 17.7146 27.7344 18.6751 26.3403C19.2554 25.5065 20.1492 25.0596 21.063 25.0196L21.0964 25.9735C20.4894 26.0201 19.9024 26.3336 19.5222 26.8806C18.8552 27.8411 19.062 29.1351 19.9758 29.7821C20.8963 30.4225 22.1836 30.1757 22.8506 29.2218C23.0574 28.9217 23.1775 28.5948 23.2242 28.2613V27.5876L26.9461 27.561L26.9928 27.4876C27.3463 26.8739 28.1134 26.6605 28.7137 27.0073C29.314 27.3542 29.5208 28.1279 29.1673 28.7416C28.8138 29.3486 28.04 29.562 27.4397 29.2152C27.1662 29.0617 26.9728 28.8149 26.8861 28.5348L24.1713 28.5481C24.098 28.995 23.9245 29.4286 23.6511 29.8421ZM28.5069 25.0797C30.1945 25.2864 31.3951 26.8006 31.1883 28.4614C30.9816 30.129 29.4474 31.3096 27.7599 31.1028C26.766 30.9827 25.9456 30.4158 25.472 29.6287L26.2991 29.1484C26.626 29.6621 27.1796 30.0289 27.8466 30.1156C29.0139 30.2557 30.0477 29.4619 30.1878 28.348C30.3279 27.2341 29.5008 26.2136 28.3469 26.0735C27.9867 26.0335 27.6398 26.0802 27.3263 26.1936L26.7594 26.4871L25.0385 23.3054H24.8917C24.1847 23.2787 23.6377 22.6984 23.6577 22.0047C23.6777 21.311 24.2781 20.7707 24.9784 20.7974C25.6788 20.8374 26.2324 21.4044 26.2124 22.0981C26.1991 22.3916 26.0857 22.6584 25.9056 22.8652L27.1729 25.2064C27.5865 25.073 28.04 25.0263 28.5069 25.0797ZM22.177 23.2654C21.5099 21.6979 22.217 19.9036 23.7578 19.2499C25.3053 18.5963 27.0929 19.3366 27.7599 20.9041C28.1534 21.8179 28.0734 22.8185 27.6265 23.6189L26.7994 23.1386C27.0795 22.5984 27.1262 21.938 26.8594 21.3177C26.4058 20.2505 25.1985 19.7369 24.1647 20.1704C23.1241 20.6106 22.6572 21.838 23.1108 22.9052C23.2975 23.3454 23.611 23.6856 23.9912 23.9124L24.2514 24.0524L22.2036 27.3809C22.2236 27.4142 22.2503 27.4542 22.2703 27.5076C22.5972 28.1146 22.3704 28.8816 21.7567 29.2085C21.1497 29.5353 20.3827 29.2952 20.0492 28.6682C19.7223 28.0479 19.9491 27.2808 20.5628 26.954C20.8229 26.8139 21.1097 26.7805 21.3832 26.8406L22.924 24.3259C22.6105 24.0391 22.3437 23.6789 22.177 23.2654Z" fill="currentColor"/>
</g>
</g>
</svg>
