<svg width="32" height="32" viewBox="0 0 32 32" fill="none" xmlns="http://www.w3.org/2000/svg">
<g id="SftpDelete">
<g id="Subtract">
<path d="M21.541 10.6663H22.231C22.4488 10.6663 22.6054 10.6185 22.701 10.523C22.7988 10.4252 22.8477 10.2796 22.8477 10.0863V9.87963C22.8477 9.68407 22.7999 9.53852 22.7043 9.44296C22.6088 9.34741 22.4521 9.29963 22.2343 9.29963H21.541V10.6663Z" fill="currentColor"/>
<path fill-rule="evenodd" clip-rule="evenodd" d="M3.96167 5.38591C3.96167 3.91315 5.15558 2.71924 6.62834 2.71924H25.3718C26.8446 2.71924 28.0385 3.91315 28.0385 5.38591V17.7815C27.1629 17.453 26.2145 17.2733 25.2241 17.2733C20.7992 17.2733 17.2122 20.8603 17.2122 25.2852C17.2122 26.75 17.6053 28.1231 18.2918 29.3045H6.62834C5.15558 29.3045 3.96167 28.1106 3.96167 26.6379V5.38591ZM9.08036 12.7696C9.2537 12.7963 9.43925 12.8096 9.63703 12.8096C10.2037 12.8096 10.6259 12.703 10.9037 12.4896C11.1815 12.2741 11.3204 11.9519 11.3204 11.523V11.4696C11.3204 11.2096 11.2715 11.0019 11.1737 10.8463C11.0781 10.6885 10.9326 10.5607 10.737 10.463C10.5437 10.363 10.2993 10.2696 10.0037 10.183C9.7837 10.1185 9.6137 10.0585 9.4937 10.003C9.37592 9.94741 9.2937 9.88963 9.24703 9.82963C9.20259 9.76963 9.18036 9.69963 9.18036 9.61963V9.6063C9.18036 9.52852 9.20036 9.46296 9.24037 9.40963C9.28036 9.35407 9.34925 9.31185 9.44703 9.28296C9.54703 9.25407 9.6837 9.23963 9.85703 9.23963C10.1037 9.23963 10.3348 9.26852 10.5504 9.3263C10.7681 9.38185 10.9626 9.45074 11.1337 9.53296L11.0437 8.63963C10.8881 8.5663 10.6981 8.50296 10.4737 8.44963C10.2515 8.3963 9.98703 8.36963 9.68036 8.36963C9.16925 8.36963 8.78148 8.47185 8.51703 8.6763C8.25481 8.88074 8.1237 9.1763 8.1237 9.56296V9.6063C8.1237 9.85741 8.17259 10.0652 8.27036 10.2296C8.36814 10.3919 8.51592 10.5274 8.7137 10.6363C8.9137 10.7452 9.16259 10.8441 9.46036 10.933C9.65814 10.9907 9.81481 11.0452 9.93036 11.0963C10.0481 11.1452 10.1315 11.1996 10.1804 11.2596C10.2315 11.3174 10.257 11.393 10.257 11.4863V11.5096C10.257 11.6496 10.2015 11.753 10.0904 11.8196C9.98148 11.8841 9.79703 11.9163 9.53703 11.9163C9.26814 11.9163 9.0137 11.8819 8.7737 11.813C8.5337 11.7419 8.32592 11.6652 8.15036 11.583L8.24037 12.543C8.34703 12.5874 8.47037 12.6307 8.61036 12.673C8.75259 12.713 8.90925 12.7452 9.08036 12.7696ZM12.3806 8.45963V12.7196H13.4173V11.2363H15.1873V10.3596H13.4173V9.3363H15.2373V8.45963H12.3806ZM17.2807 12.7196V9.32963H16.104V8.45963H19.4973V9.32963H18.324V12.7196H17.2807ZM21.5477 11.5096V12.7196H20.521V8.45963H22.311C22.8532 8.45963 23.2499 8.57963 23.501 8.81963C23.7543 9.05963 23.881 9.40296 23.881 9.84963V10.1196C23.881 10.5685 23.7543 10.913 23.501 11.153C23.2499 11.3907 22.8543 11.5096 22.3143 11.5096H21.5477Z" fill="currentColor"/>
<path d="M30.0534 22.5065L27.2134 25.3331L30.0534 28.1598L28.1601 30.0531L25.3334 27.2131L22.5068 30.0531L20.6134 28.1598L23.4534 25.3331L20.6134 22.5065L22.5068 20.6131L25.3334 23.4531L28.1601 20.6131L30.0534 22.5065Z" fill="currentColor"/>
</g>
</g>
</svg>
