<svg width="32" height="32" viewBox="0 0 32 32" fill="none" xmlns="http://www.w3.org/2000/svg">
<g id="SmbMove">
<g id="Subtract">
<path d="M23.2594 13.2215H22.1804V11.7482H23.3114C23.4876 11.7482 23.6422 11.7785 23.7751 11.8392C23.9109 11.8969 24.0163 11.9807 24.0914 12.0905C24.1694 12.1974 24.2084 12.3259 24.2084 12.4762C24.2084 12.6871 24.1275 12.8647 23.9657 13.0092C23.8069 13.1507 23.5714 13.2215 23.2594 13.2215Z" fill="currentColor"/>
<path d="M23.3114 10.5955H22.1804V9.20017H23.2421C23.4992 9.20017 23.713 9.26228 23.8834 9.3865C24.0539 9.51073 24.1391 9.68695 24.1391 9.91517C24.1391 10.0249 24.1174 10.1232 24.0741 10.2098C24.0308 10.2936 23.9715 10.3644 23.8964 10.4222C23.8213 10.4799 23.7346 10.5233 23.6364 10.5522C23.5382 10.5811 23.4299 10.5955 23.3114 10.5955Z" fill="currentColor"/>
<path fill-rule="evenodd" clip-rule="evenodd" d="M3.96155 5.38591C3.96155 3.91315 5.15546 2.71924 6.62821 2.71924H25.3717C26.8445 2.71924 28.0384 3.91315 28.0384 5.38591V17.7815C27.1628 17.453 26.2143 17.2733 25.224 17.2733C20.7991 17.2733 17.212 20.8603 17.212 25.2852C17.212 26.75 17.6052 28.1231 18.2916 29.3045H6.62821C5.15545 29.3045 3.96155 28.1106 3.96155 26.6379V5.38591ZM8.99611 14.4305C8.67834 14.4305 8.36489 14.3915 8.05578 14.3135C7.74956 14.2326 7.46934 14.1127 7.21511 13.9538C6.96089 13.7921 6.75 13.5898 6.58245 13.3472C6.41778 13.1045 6.321 12.8199 6.29211 12.4935H7.80011C7.83767 12.6639 7.90989 12.8084 8.01678 12.9268C8.12367 13.0424 8.25945 13.1319 8.42411 13.1955C8.59167 13.2562 8.77945 13.2865 8.98745 13.2865C9.18967 13.2865 9.37745 13.2634 9.55078 13.2172C9.72411 13.1709 9.86278 13.0987 9.96678 13.0005C10.0737 12.9023 10.1271 12.7708 10.1271 12.6062C10.1271 12.4646 10.078 12.3519 9.97978 12.2682C9.88445 12.1815 9.75734 12.1136 9.59845 12.0645C9.43956 12.0125 9.26767 11.9692 9.08278 11.9345L8.06011 11.7395C7.58345 11.6557 7.20211 11.4651 6.91611 11.1675C6.63011 10.8699 6.48278 10.4669 6.47411 9.9585C6.46834 9.55117 6.57667 9.20162 6.79911 8.90984C7.02445 8.61517 7.32634 8.38984 7.70478 8.23384C8.08323 8.07784 8.50356 7.99984 8.96578 7.99984C9.52045 7.99984 9.98845 8.08362 10.3698 8.25117C10.754 8.41873 11.0458 8.64984 11.2451 8.9445C11.4444 9.23628 11.547 9.56706 11.5528 9.93684H10.0838C10.0636 9.74617 10.0058 9.59306 9.91045 9.4775C9.81511 9.36195 9.68945 9.27961 9.53345 9.2305C9.38034 9.1785 9.20123 9.1525 8.99611 9.1525C8.82856 9.1525 8.68411 9.16984 8.56278 9.2045C8.44145 9.23628 8.34034 9.28106 8.25945 9.33884C8.17856 9.39662 8.11789 9.4645 8.07745 9.5425C8.03989 9.61762 8.02111 9.69706 8.02111 9.78084C8.02111 9.94262 8.07311 10.0741 8.17711 10.1752C8.284 10.2734 8.48767 10.3543 8.78811 10.4178L9.80645 10.6085C10.2224 10.6836 10.5503 10.7992 10.7901 10.9552C11.0299 11.1112 11.209 11.2874 11.3274 11.4838C11.4459 11.6774 11.521 11.8724 11.5528 12.0688C11.5874 12.2653 11.6048 12.4444 11.6048 12.6062C11.6048 12.9499 11.4921 13.2605 11.2668 13.5378C11.0443 13.8152 10.7367 14.0333 10.3438 14.1922C9.95378 14.3511 9.50456 14.4305 8.99611 14.4305ZM12.6201 14.3438V8.07784H14.7954L16.0174 12.2205L17.2524 8.07784H19.4147V14.3438H17.9327V9.67684L16.5677 14.3438H15.4671L14.1021 9.68984V14.3438H12.6201ZM20.7028 8.07784V14.3438H23.2118C24.0957 14.3438 24.7327 14.2052 25.1228 13.9278C25.5128 13.6505 25.7077 13.2215 25.7077 12.6408C25.7077 12.5079 25.6947 12.3693 25.6688 12.2248C25.6428 12.0804 25.5893 11.9388 25.5084 11.8002C25.4304 11.6615 25.3105 11.5329 25.1488 11.4145C24.9899 11.2961 24.7775 11.2007 24.5117 11.1285C24.9075 10.9465 25.1805 10.7428 25.3307 10.5175C25.4839 10.2893 25.5604 10.0264 25.5604 9.72884C25.5604 9.19439 25.3611 8.78562 24.9624 8.5025C24.5638 8.21939 23.9397 8.07784 23.0904 8.07784H20.7028Z" fill="currentColor"/>
<path d="M29.3333 25.3332L25.3333 21.3332V23.9998H20V26.6665H25.3333V29.3332L29.3333 25.3332Z" fill="currentColor"/>
</g>
</g>
</svg>
