<?xml version="1.0" encoding="utf-8"?>
<svg version="1.1" id="Calque_1" xmlns="http://www.w3.org/2000/svg" xmlns:xlink="http://www.w3.org/1999/xlink" x="0px" y="0px"
     viewBox="0 0 24 24" style="enable-background:new 0 0 24 24;" xml:space="preserve">
<style type="text/css">
	.st0{fill:none;}
	.st1{fill:#0F1724;}
</style>
    <g>
	<rect x="5" y="4" class="st0" width="2" height="2"/>
        <rect x="9" y="4" class="st0" width="1" height="2"/>
        <path class="st1" d="M4,8h16c0.6,0,1-0.4,1-1V3c0-0.6-0.4-1-1-1H4C3.4,2,3,2.4,3,3v4C3,7.6,3.4,8,4,8z M9,4h1v2H9V4z M5,4h2v2H5V4z
		"/>
        <path class="st1" d="M15,13c0.1,0,0.2-0.1,0.3-0.1s0.2-0.1,0.2-0.2c0-0.1,0.1-0.2,0.1-0.3c0-0.1,0-0.2-0.1-0.3s-0.1-0.2-0.2-0.2
		c-0.1-0.1-0.2-0.1-0.3-0.1c-0.1,0-0.2,0-0.4,0c-0.2,0-0.4,0-0.5,0V13h0.4C14.7,13,14.8,13,15,13z"/>
        <path class="st1" d="M15,19c0-0.6-0.4-1-1-1h-1v-2h7c0.6,0,1-0.4,1-1v-4c0-0.6-0.4-1-1-1H4c-0.6,0-1,0.4-1,1v4c0,0.6,0.4,1,1,1h7v2
		h-1c-0.6,0-1,0.4-1,1H2v2h7c0,0.6,0.4,1,1,1h4c0.6,0,1-0.4,1-1h7v-2H15z M13.7,11.3c0.1,0,0.3-0.1,0.5-0.1c0.2,0,0.3,0,0.5,0
		c0.5,0,0.9,0.1,1.1,0.3s0.4,0.5,0.4,0.8c0,0.2,0,0.4-0.1,0.5c-0.1,0.1-0.2,0.3-0.3,0.3c-0.1,0.1-0.3,0.2-0.5,0.2s-0.4,0.1-0.7,0.1
		h-0.4v1.3h-0.5V11.3z M10.2,11.7H8.6v1H10v0.4H8.6v1.6H8.1v-3.5h2.1V11.7z M12.1,14.7h-0.5v-3h-1.1v-0.4h2.7v0.4h-1.1V14.7z"/>
</g>
</svg>
