<?xml version="1.0" encoding="UTF-8" standalone="no"?>
<svg
   xmlns:dc="http://purl.org/dc/elements/1.1/"
   xmlns:cc="http://creativecommons.org/ns#"
   xmlns:rdf="http://www.w3.org/1999/02/22-rdf-syntax-ns#"
   xmlns:svg="http://www.w3.org/2000/svg"
   xmlns="http://www.w3.org/2000/svg"
   xmlns:sodipodi="http://sodipodi.sourceforge.net/DTD/sodipodi-0.dtd"
   xmlns:inkscape="http://www.inkscape.org/namespaces/inkscape"
   width="16"
   height="16"
   preserveAspectRatio="xMidYMid meet"
   viewBox="0 0 16 16"
   style="-ms-transform: rotate(360deg); -webkit-transform: rotate(360deg); transform: rotate(360deg);"
   version="1.1"
   id="svg14"
   sodipodi:docname="server.svg"
   inkscape:version="0.92.5 (2060ec1f9f, 2020-04-08)">
  <metadata
     id="metadata20">
    <rdf:RDF>
      <cc:Work
         rdf:about="">
        <dc:format>image/svg+xml</dc:format>
        <dc:type
           rdf:resource="http://purl.org/dc/dcmitype/StillImage" />
      </cc:Work>
    </rdf:RDF>
  </metadata>
  <defs
     id="defs18" />
  <sodipodi:namedview
     pagecolor="#ffffff"
     bordercolor="#666666"
     borderopacity="1"
     objecttolerance="10"
     gridtolerance="10"
     guidetolerance="10"
     inkscape:pageopacity="0"
     inkscape:pageshadow="2"
     inkscape:window-width="1920"
     inkscape:window-height="1022"
     id="namedview16"
     showgrid="false"
     inkscape:zoom="14.75"
     inkscape:cx="21.9904"
     inkscape:cy="13.102489"
     inkscape:window-x="2560"
     inkscape:window-y="0"
     inkscape:window-maximized="1"
     inkscape:current-layer="svg14" />
  <g
     id="g10"
     transform="translate(0.27118644,-0.20338983)"
     style="fill:#626262">
    <path
       d="M 8.2714844 1.796875 C 5.5104844 1.796875 3.2714844 2.691875 3.2714844 3.796875 L 3.2714844 4.796875 L 3.2714844 6.546875 L 3.2714844 8.796875 L 3.2714844 10.546875 L 3.2714844 11.796875 A 5 2 0 0 0 8.2714844 13.796875 A 5 2 0 0 0 13.271484 11.796875 L 13.271484 10.546875 L 13.271484 8.796875 L 13.271484 6.546875 L 13.271484 4.796875 L 13.271484 3.796875 C 13.271484 2.691875 11.032484 1.796875 8.2714844 1.796875 z M 6.078125 7.0175781 C 6.1770833 7.0175781 6.2699653 7.0292969 6.359375 7.0527344 C 6.4496528 7.0761719 6.5444878 7.109809 6.6425781 7.1523438 L 6.5117188 7.4667969 C 6.4101562 7.4251302 6.3266059 7.3953993 6.2597656 7.3789062 C 6.1937934 7.3624132 6.1286892 7.3535156 6.0644531 7.3535156 C 5.9880642 7.3535156 5.9294705 7.3726128 5.8886719 7.4082031 C 5.8478733 7.4437934 5.828125 7.4895833 5.828125 7.546875 C 5.828125 7.5824653 5.8350694 7.6137153 5.8515625 7.640625 C 5.8680556 7.6666667 5.8940972 7.6916233 5.9296875 7.7167969 C 5.9661458 7.7411024 6.0529514 7.7853733 6.1875 7.8496094 C 6.3654514 7.9346788 6.4867622 8.0214844 6.5527344 8.1074219 C 6.6187066 8.1924913 6.6523438 8.2957899 6.6523438 8.4199219 C 6.6523438 8.5917969 6.5889757 8.7272135 6.4648438 8.8261719 C 6.3415799 8.9251302 6.1697049 8.9746094 5.9492188 8.9746094 C 5.7460937 8.9746094 5.5664063 8.937717 5.4101562 8.8613281 L 5.4101562 8.4863281 C 5.5386285 8.5436198 5.6477865 8.5839844 5.7363281 8.6074219 C 5.8257378 8.6308594 5.906684 8.6425781 5.9804688 8.6425781 C 6.0690104 8.6425781 6.1367187 8.625651 6.1835938 8.5917969 C 6.2313368 8.5579427 6.2558594 8.5062934 6.2558594 8.4394531 C 6.2558594 8.4021267 6.2454427 8.3704427 6.2246094 8.3417969 C 6.203776 8.312283 6.1736111 8.2827691 6.1328125 8.2558594 C 6.0928819 8.2289497 6.0108507 8.1859809 5.8867188 8.1269531 C 5.7703993 8.0722656 5.6831597 8.0210503 5.625 7.9707031 C 5.5668403 7.9203559 5.5190972 7.8617622 5.484375 7.7949219 C 5.4496528 7.7280816 5.4335937 7.6499566 5.4335938 7.5605469 C 5.4335938 7.3921441 5.4898003 7.2584635 5.6035156 7.1621094 C 5.718099 7.0657552 5.8767361 7.0175781 6.078125 7.0175781 z M 6.9960938 7.0449219 L 8.0878906 7.0449219 L 8.0878906 7.3769531 L 7.3945312 7.3769531 L 7.3945312 7.8671875 L 8.0390625 7.8671875 L 8.0390625 8.1972656 L 7.3945312 8.1972656 L 7.3945312 8.9492188 L 6.9960938 8.9492188 L 6.9960938 7.0449219 z M 8.2734375 7.0449219 L 9.7109375 7.0449219 L 9.7109375 7.3808594 L 9.1953125 7.3808594 L 9.1953125 8.9492188 L 8.7910156 8.9492188 L 8.7910156 7.3808594 L 8.2734375 7.3808594 L 8.2734375 7.0449219 z M 10.003906 7.0449219 L 10.613281 7.0449219 C 10.844184 7.0449219 11.01888 7.0954861 11.138672 7.1953125 C 11.259332 7.2942708 11.320312 7.4416233 11.320312 7.6386719 C 11.320312 7.843533 11.255425 8.0008681 11.126953 8.109375 C 10.999349 8.2178819 10.818142 8.2714844 10.582031 8.2714844 L 10.408203 8.2714844 L 10.408203 8.9492188 L 10.003906 8.9492188 L 10.003906 7.0449219 z M 10.408203 7.3769531 L 10.408203 7.9414062 L 10.541016 7.9414062 C 10.665148 7.9414062 10.758681 7.9177517 10.820312 7.8691406 C 10.881944 7.8196615 10.912109 7.7480469 10.912109 7.6542969 C 10.912109 7.5596788 10.886068 7.4884983 10.833984 7.4433594 C 10.782769 7.3982205 10.70204 7.3769531 10.591797 7.3769531 L 10.408203 7.3769531 z "
       transform="translate(-0.27118644,0.20338983)"
       id="path2" />
  </g>
</svg>
