<?xml version="1.0" encoding="UTF-8"?>
<svg width="700pt" height="600pt" version="1.1" viewBox="0 0 700 600" xmlns="http://www.w3.org/2000/svg" xmlns:xlink="http://www.w3.org/1999/xlink">
 <g>
  <path d="m499.62 325.12v37.164c0 2.1094 1.7188 3.8281 3.8281 3.8281s3.8281-1.7188 3.8281-3.8281v-37.164c0-8.1367-6.6289-14.766-14.766-14.766h-121.27c-1.5742-8.9453-8.5312-16.047-17.414-17.805v-27.43h134.45c10.477 0 19.008-8.5312 19.008-19.008v-194.23c0-10.477-8.5312-19.008-19.008-19.008h-174.66l-3.6758-6.0938c-4.8789-8.082-13.77-13.102-23.211-13.102h-74.168c-10.477 0-19.008 8.5312-19.008 19.008v169.57c0 2.1094 1.7188 3.8281 3.8281 3.8281s3.8281-1.7188 3.8281-3.8281l0.003906-169.57c0-6.2578 5.0977-11.352 11.352-11.352h74.168c6.7695 0 13.156 3.5977 16.656 9.4062l24.434 40.48c2.7031 4.4844 7.6445 7.2617 12.875 7.2617h140.7c2.1094 0 3.8281-1.7188 3.8281-3.8281 0-2.1094-1.7188-3.8281-3.8281-3.8281h-11.594c0.23047-0.63281 0.38281-1.3008 0.38281-2.0234 0-12.227-6.8359-22.848-16.887-28.273h34.988c6.2578 0 11.352 5.0977 11.352 11.352v194.22c0 6.2578-5.0977 11.352-11.352 11.352h-275.73c-6.2578 0-11.352-5.0977-11.352-11.352v-19.469c0-2.1094-1.7188-3.8281-3.8281-3.8281-2.1094 0-3.8281 1.7188-3.8281 3.8281v19.469c0 10.477 8.5312 19.008 19.008 19.008h133.62v27.301c-9.3086 1.4336-16.703 8.6953-18.332 17.949h-114.15c-8.1367 0-14.766 6.6289-14.766 14.766v37.164c0 2.1094 1.7188 3.8281 3.8281 3.8281s3.8281-1.7188 3.8281-3.8281v-37.164c0-3.9141 3.1953-7.1094 7.1094-7.1094h114.16c1.8164 10.336 10.852 18.234 21.699 18.234 10.852 0 19.883-7.8867 21.699-18.234h121.27c3.9258 0 7.1094 3.1953 7.1094 7.1094zm-142.29-22.344c-10.062 0-18.234 8.1602-18.234 18.234 0 1.1719 0.12109 2.3203 0.33984 3.4219-2.6484-2.6133-4.2969-6.2461-4.2969-10.25 0-7.9414 6.4648-14.406 14.406-14.406 3.3359 0 6.3984 1.1484 8.8359 3.0508-0.36328-0.019531-0.70312-0.050781-1.0508-0.050781z"/>
  <path d="m297.35 388.39h-110.45c-0.85156 0-1.3789 0.92969-0.94141 1.6641l9.4492 15.652c0.39453 0.65625 1.1055 1.0625 1.8711 1.0625l87.785 0.023438c2.1875 0 3.9375 1.8281 3.8281 4.0352-0.10938 2.0664-1.9688 3.6211-4.0352 3.6211h-88.77c-2.6797 0-5.207-1.4219-6.5859-3.7188l-16.766-27.77c-2.1016-3.4766-5.4922-5.9375-9.3086-7.0977-0.65625-0.19531-3.0625-0.625-4.375-0.625l-50.902-0.003906c-5.7539 0-10.422 4.6602-10.422 10.422v146.44c0 5.7539 4.6602 10.422 10.422 10.422h189.2c5.7539 0 10.422-4.6602 10.422-10.422l0.003906-133.29c0-5.7539-4.6602-10.414-10.422-10.414zm-148.32 12.348h-26.031c-2.1094 0-3.8281-1.7188-3.8281-3.8281s1.7188-3.8281 3.8281-3.8281h26.031c2.1094 0 3.8281 1.7188 3.8281 3.8281 0 2.1133-1.707 3.8281-3.8281 3.8281z"/>
  <path d="m591.85 388.39h-110.46c-0.85156 0-1.3789 0.92969-0.94141 1.6641l9.4492 15.652c0.39453 0.65625 1.1055 1.0625 1.8711 1.0625l87.785 0.023438c2.375 0 4.2422 2.1641 3.75 4.625-0.35938 1.793-2.0234 3.0312-3.8516 3.0312h-88.891c-2.6914 0-5.1953-1.4102-6.5859-3.7188l-13.477-22.324s-4.2227-6.8594-4.7695-7.4922c-3.0078-3.543-7.4922-5.6758-12.207-5.6758h-50.891c-5.7539 0-10.422 4.6602-10.422 10.422v146.44c0 5.7539 4.6602 10.422 10.422 10.422h189.2c5.7539 0 10.422-4.6602 10.422-10.422l0.011719-133.3c0-5.7539-4.6602-10.414-10.41-10.414zm-148.32 12.348h-26.031c-2.1094 0-3.8281-1.7188-3.8281-3.8281s1.7188-3.8281 3.8281-3.8281h26.031c2.1094 0 3.8281 1.7188 3.8281 3.8281 0 2.1133-1.7188 3.8281-3.8281 3.8281z"/>
 </g>
</svg>
